<svg class="mx-auto" width="87" height="25" viewBox="0 0 87 25" fill="none" xmlns="http://www.w3.org/2000/svg">
<path d="M22.436 0.0771484C31.3335 0.0771484 36.3534 4.56699 36.3534 12.5259C36.3534 20.4847 31.3335 24.9741 22.436 24.9741H12.7219V0.0771484H22.436ZM22.436 18.4844C26.3951 18.4844 28.6393 16.3622 28.6393 12.5258C28.6393 8.68945 26.3946 6.52606 22.436 6.52606H20.3542V18.4844H22.436Z" fill="white"></path>
<path d="M7.31431 0V14.5275H0.0301514V0H7.31431Z" fill="white"></path>
<path d="M2.14577e-05 25H7.33911L7.33911 17.6609H2.14577e-05L2.14577e-05 25Z" fill="url(#paint0_linear_164_826)"></path>
<path d="M44.6388 5.45539V0.684082H45.546V5.45539H44.6388Z" fill="white"></path>
<path d="M47.51 2.26067C47.6588 2.08373 47.8427 1.93954 48.05 1.8372C48.2573 1.73485 48.4836 1.67657 48.7145 1.66603C48.9475 1.63689 49.1834 1.68965 49.3817 1.81527C49.5801 1.9409 49.7286 2.13158 49.8018 2.35465C49.9583 2.15194 50.1567 1.98545 50.3836 1.86659C50.6104 1.74773 50.8602 1.67932 51.1159 1.66603C51.8981 1.66603 52.2892 2.112 52.2892 3.11319V5.45185H51.3977V3.34772C51.3977 2.76103 51.2957 2.49515 50.8736 2.49515C50.6821 2.51814 50.4973 2.57994 50.3305 2.67677C50.1637 2.7736 50.0184 2.90343 49.9035 3.05832V5.45185H49.0198V3.34772C49.0198 2.76103 48.8946 2.49515 48.4801 2.49515C48.2873 2.51632 48.1011 2.57814 47.9339 2.67653C47.7666 2.77493 47.6222 2.90765 47.51 3.06596V5.45185H46.6261V1.73631H47.5101L47.51 2.26067Z" fill="white"></path>
<path d="M54.0802 2.18225C54.4436 1.86058 54.9091 1.67766 55.3943 1.66577C56.3018 1.66577 56.8414 2.20572 56.8414 3.57448C56.8414 4.9747 56.1061 5.52229 55.3082 5.52229C55.0777 5.52969 54.8483 5.48661 54.6362 5.39606C54.424 5.30552 54.2343 5.16969 54.0802 4.99811V6.69532H53.1963V1.72847H54.0802V2.18225ZM54.0802 4.24727C54.1983 4.40779 54.351 4.53966 54.527 4.63309C54.7031 4.72652 54.8979 4.77912 55.097 4.78698C55.5976 4.78698 55.9731 4.45058 55.9731 3.57448C55.9731 2.71408 55.676 2.4012 55.1519 2.4012C54.9453 2.41766 54.744 2.47529 54.5599 2.57071C54.3759 2.66612 54.2128 2.79739 54.0802 2.95679L54.0802 4.24727Z" fill="white"></path>
<path d="M57.6229 1.91614C58.1257 1.76287 58.6464 1.67615 59.1718 1.6582C60.2276 1.6582 60.5955 2.11975 60.5955 3.20704V5.4519H59.7194V4.99836C59.3954 5.32392 58.9581 5.51171 58.499 5.52248C57.6776 5.52248 57.2554 5.20961 57.2554 4.38026C57.2554 3.59025 57.7636 3.20698 58.8119 3.20698C59.1794 3.20698 59.4062 3.19904 59.7194 3.20698C59.7194 2.58888 59.5783 2.4011 59.0154 2.4011C58.5929 2.41518 58.1732 2.47559 57.7639 2.58124L57.6229 1.91614ZM58.9214 3.76227C58.3503 3.76227 58.0689 3.85631 58.0689 4.27851C58.0689 4.6696 58.3113 4.87309 58.7729 4.87309C58.9556 4.86205 59.134 4.81325 59.297 4.72977C59.4599 4.64629 59.6037 4.52995 59.7194 4.38808V3.76233L58.9214 3.76227Z" fill="white"></path>
<path d="M64.6394 4.97589C64.1861 5.35805 63.6045 5.55376 63.0124 5.52342C62.768 5.52713 62.5257 5.47895 62.3013 5.38208C62.077 5.28521 61.8757 5.14184 61.7109 4.96144C61.546 4.78105 61.4213 4.56773 61.345 4.33558C61.2687 4.10343 61.2425 3.85774 61.2682 3.61471C61.2416 3.36274 61.2694 3.10799 61.3498 2.86769C61.4301 2.62739 61.5611 2.40712 61.7338 2.22176C61.9065 2.0364 62.1171 1.89027 62.3511 1.79323C62.5852 1.69619 62.8373 1.65051 63.0905 1.65926C63.5886 1.65612 64.0781 1.78854 64.5066 2.04235L64.2248 2.6214C63.8885 2.46741 63.523 2.38739 63.1531 2.38675C62.5353 2.38675 62.1363 2.86382 62.1363 3.61478C62.1363 4.33456 62.5197 4.78805 63.1375 4.78805C63.569 4.79497 63.9922 4.66934 64.35 4.42812L64.6394 4.97589Z" fill="white"></path>
<path d="M67.5254 5.29645C67.2275 5.41954 66.9091 5.4859 66.5868 5.49211C65.7653 5.49211 65.429 5.11667 65.429 4.19357V2.47277H64.8815V1.72988H65.429V0.837891H66.3206V1.72988H67.3533V2.47283H66.3206V4.15446C66.3206 4.60049 66.4771 4.72564 66.8997 4.72564C67.0775 4.72831 67.2552 4.71779 67.4314 4.69417L67.5254 5.29645Z" fill="white"></path>
<path d="M68.5431 0.172526C68.609 0.166648 68.6755 0.174652 68.7381 0.19602C68.8008 0.217388 68.8583 0.251647 68.9069 0.296591C68.9556 0.341534 68.9942 0.396165 69.0205 0.456965C69.0467 0.517764 69.0599 0.583384 69.0592 0.649596C69.047 0.778004 68.9873 0.897232 68.8919 0.984001C68.7964 1.07077 68.6721 1.11885 68.5431 1.11885C68.4141 1.11885 68.2897 1.07077 68.1943 0.984001C68.0988 0.897232 68.0391 0.778004 68.0269 0.649596C68.0262 0.583384 68.0394 0.517764 68.0656 0.456965C68.0919 0.396165 68.1305 0.341534 68.1792 0.296591C68.2278 0.251647 68.2853 0.217388 68.348 0.19602C68.4107 0.174652 68.4771 0.166648 68.5431 0.172526V0.172526ZM68.105 5.45249V1.73695H68.9887V5.45249H68.105Z" fill="white"></path>
<path d="M70.8804 2.25247C71.2281 1.89227 71.7024 1.6818 72.2028 1.66577C73.0239 1.66577 73.4152 2.10409 73.4152 3.11293V5.45183H72.5312V3.3477C72.5312 2.74542 72.4372 2.49512 71.9445 2.49512C71.7357 2.50795 71.5322 2.56642 71.3484 2.66642C71.1646 2.76641 71.0049 2.9055 70.8807 3.07388V5.45183H69.9967V1.73629H70.8807L70.8804 2.25247Z" fill="white"></path>
<path d="M77.7404 4.85761C77.7404 6.1949 77.0911 6.74255 75.9803 6.74255C75.4117 6.74834 74.8495 6.62254 74.3377 6.37499L74.5254 5.73366C74.9521 5.90152 75.4047 5.99407 75.8631 6.00718C76.5044 6.00718 76.8563 5.71777 76.8563 4.85761V4.74005C76.7037 4.92531 76.5092 5.0716 76.2889 5.16681C76.0686 5.26201 75.8287 5.30341 75.5892 5.28757C74.7367 5.28757 74.0953 4.74787 74.0953 3.53543C74.0953 2.20572 74.635 1.66577 75.5423 1.66577C76.027 1.67988 76.4917 1.86252 76.8563 2.18225V1.73641H77.7404V4.85761ZM76.8563 2.96473C76.7386 2.80257 76.5863 2.66862 76.4104 2.57258C76.2346 2.47653 76.0395 2.42081 75.8395 2.40945C75.2998 2.40945 74.9634 2.69091 74.9634 3.53585C74.9634 4.33379 75.3859 4.59967 75.8944 4.59967C76.0883 4.59032 76.277 4.53421 76.4445 4.43614C76.612 4.33806 76.7532 4.20093 76.8563 4.03644L76.8563 2.96473Z" fill="white"></path>
<path d="M46.2032 10.3069C47.8927 10.3069 48.839 11.1906 48.839 12.669C48.839 14.1787 47.8771 15.0783 46.2032 15.0783H44.6388V10.307L46.2032 10.3069ZM46.2032 14.2568C47.3139 14.2568 47.924 13.7016 47.924 12.669C47.924 11.6677 47.3296 11.128 46.2032 11.128H45.5459V14.2567L46.2032 14.2568Z" fill="white"></path>
<path d="M50.0363 9.80094C50.1023 9.79507 50.1688 9.80307 50.2314 9.82444C50.2941 9.84581 50.3516 9.88006 50.4002 9.92501C50.4489 9.96995 50.4875 10.0246 50.5138 10.0854C50.54 10.1462 50.5532 10.2118 50.5525 10.278C50.5403 10.4064 50.4806 10.5257 50.3851 10.6124C50.2897 10.6992 50.1653 10.7473 50.0363 10.7473C49.9074 10.7473 49.783 10.6992 49.6875 10.6124C49.5921 10.5257 49.5324 10.4064 49.5202 10.278C49.5195 10.2118 49.5327 10.1462 49.5589 10.0854C49.5852 10.0246 49.6238 9.96995 49.6725 9.92501C49.7211 9.88006 49.7786 9.84581 49.8413 9.82444C49.9039 9.80307 49.9704 9.79507 50.0363 9.80094V9.80094ZM49.5981 15.0809V11.3654H50.4826V15.0809H49.5981Z" fill="white"></path>
<path d="M54.8624 14.4855C54.8624 15.8228 54.2132 16.3705 53.1023 16.3705C52.5338 16.3763 51.9716 16.2505 51.4598 16.0029L51.6475 15.3616C52.0742 15.5294 52.5267 15.622 52.9851 15.6351C53.6265 15.6351 53.9784 15.3457 53.9784 14.4855V14.368C53.8258 14.5532 53.6313 14.6995 53.411 14.7947C53.1906 14.8899 52.9508 14.9313 52.7113 14.9155C51.8587 14.9155 51.2174 14.3758 51.2174 13.1634C51.2174 11.8336 51.7571 11.2937 52.6643 11.2937C53.1491 11.3079 53.6138 11.4906 53.9784 11.8105V11.3645H54.8624V14.4855ZM53.9784 12.5927C53.8607 12.4305 53.7084 12.2965 53.5325 12.2005C53.3566 12.1045 53.1616 12.0487 52.9615 12.0374C52.4218 12.0374 52.0855 12.3188 52.0855 13.1638C52.0855 13.9617 52.5079 14.2276 53.0165 14.2276C53.2103 14.2182 53.3991 14.1621 53.5666 14.0641C53.734 13.966 53.8753 13.8289 53.9783 13.6644L53.9784 12.5927Z" fill="white"></path>
<path d="M56.2005 9.80094C56.2665 9.79507 56.3329 9.80307 56.3956 9.82444C56.4583 9.84581 56.5158 9.88006 56.5644 9.92501C56.613 9.96995 56.6517 10.0246 56.6779 10.0854C56.7042 10.1462 56.7174 10.2118 56.7167 10.278C56.7045 10.4064 56.6448 10.5257 56.5493 10.6124C56.4539 10.6992 56.3295 10.7473 56.2005 10.7473C56.0715 10.7473 55.9472 10.6992 55.8517 10.6124C55.7563 10.5257 55.6966 10.4064 55.6844 10.278C55.6837 10.2118 55.6969 10.1462 55.7231 10.0854C55.7493 10.0246 55.788 9.96995 55.8366 9.92501C55.8853 9.88006 55.9428 9.84581 56.0054 9.82444C56.0681 9.80307 56.1346 9.79507 56.2005 9.80094V9.80094ZM55.7625 15.0809V11.3654H56.6465V15.0809H55.7625Z" fill="white"></path>
<path d="M59.8448 14.9241C59.5469 15.0472 59.2285 15.1136 58.9062 15.1198C58.0847 15.1198 57.7483 14.7444 57.7483 13.8213V12.1005H57.2008V11.3576H57.7483V10.4656H58.64V11.3576H59.6727V12.1005H58.64V13.7821C58.64 14.2282 58.7965 14.3533 59.2191 14.3533C59.3969 14.356 59.5746 14.3455 59.7508 14.3219L59.8448 14.9241Z" fill="white"></path>
<path d="M60.5553 11.5443C61.0581 11.391 61.5788 11.3043 62.1042 11.2864C63.16 11.2864 63.5278 11.7479 63.5278 12.8352V15.0801H62.6517V14.6265C62.3278 14.9521 61.8905 15.1399 61.4314 15.1507C60.6099 15.1507 60.1877 14.8378 60.1877 14.0084C60.1877 13.2184 60.696 12.8352 61.7442 12.8352C62.1118 12.8352 62.3386 12.8272 62.6517 12.8352C62.6517 12.2171 62.5107 12.0293 61.9478 12.0293C61.5253 12.0434 61.1056 12.1038 60.6963 12.2094L60.5553 11.5443ZM61.8538 13.3904C61.2827 13.3904 61.0013 13.4845 61.0013 13.9067C61.0013 14.2978 61.2436 14.5013 61.7052 14.5013C61.888 14.4902 62.0664 14.4414 62.2293 14.3579C62.3923 14.2745 62.5361 14.1581 62.6518 14.0163V13.3905L61.8538 13.3904Z" fill="white"></path>
<path d="M64.3961 15.0791V9.99487H65.2801V15.0791H64.3961Z" fill="white"></path>
<path d="M47.4893 23.2532H48.5963C48.5781 23.597 48.4847 23.9007 48.3161 24.1643C48.1498 24.4256 47.9186 24.6308 47.6225 24.7798C47.3264 24.9265 46.9745 24.9998 46.5668 24.9998C46.2411 24.9998 45.9495 24.9437 45.6922 24.8314C45.4348 24.719 45.2161 24.5586 45.0362 24.35C44.8585 24.1391 44.7218 23.8858 44.6262 23.5902C44.5328 23.2922 44.4861 22.9564 44.4861 22.5827V22.2767C44.4861 21.9031 44.5351 21.5673 44.633 21.2693C44.7309 20.9714 44.871 20.7169 45.0532 20.506C45.2355 20.2952 45.4541 20.1336 45.7092 20.0213C45.9643 19.9089 46.2491 19.8528 46.5634 19.8528C46.987 19.8528 47.3447 19.9296 47.6362 20.0831C47.9278 20.2367 48.1533 20.4476 48.3127 20.7158C48.4744 20.984 48.5712 21.29 48.6031 21.6338H47.4927C47.4836 21.439 47.4472 21.2751 47.3834 21.1421C47.3196 21.0069 47.2217 20.9049 47.0895 20.8361C46.9574 20.7674 46.7821 20.733 46.5634 20.733C46.4039 20.733 46.2639 20.7628 46.1431 20.8224C46.0247 20.882 45.9256 20.9748 45.8459 21.1009C45.7685 21.2269 45.7104 21.3874 45.6717 21.5822C45.6329 21.7748 45.6136 22.004 45.6136 22.2699V22.5827C45.6136 22.8463 45.6307 23.0744 45.6648 23.267C45.699 23.4595 45.7536 23.6188 45.8288 23.7449C45.9063 23.8709 46.0053 23.9649 46.1261 24.0268C46.2468 24.0887 46.3937 24.1196 46.5668 24.1196C46.765 24.1196 46.9301 24.0887 47.0622 24.0268C47.1943 23.9626 47.2957 23.8664 47.3663 23.738C47.4369 23.6096 47.4779 23.448 47.4893 23.2532Z" fill="white"></path>
<path d="M53.3625 22.318V22.5415C53.3625 22.922 53.3101 23.2635 53.2053 23.5661C53.1028 23.8686 52.9559 24.1265 52.7646 24.3397C52.5755 24.5529 52.35 24.7167 52.0881 24.8314C51.8284 24.9437 51.5403 24.9998 51.2237 24.9998C50.9071 24.9998 50.6178 24.9437 50.3558 24.8314C50.0939 24.7167 49.8661 24.5529 49.6725 24.3397C49.4812 24.1265 49.3331 23.8686 49.2284 23.5661C49.1236 23.2635 49.0712 22.922 49.0712 22.5415V22.318C49.0712 21.9375 49.1236 21.596 49.2284 21.2934C49.3331 20.9885 49.48 20.7295 49.6691 20.5164C49.8604 20.3032 50.0871 20.1404 50.349 20.0281C50.6109 19.9135 50.9002 19.8562 51.2168 19.8562C51.5334 19.8562 51.8227 19.9135 52.0846 20.0281C52.3466 20.1404 52.5721 20.3032 52.7611 20.5164C52.9525 20.7295 53.1005 20.9885 53.2053 21.2934C53.3101 21.596 53.3625 21.9375 53.3625 22.318ZM52.2384 22.5415V22.3111C52.2384 22.0567 52.2156 21.8321 52.1701 21.6372C52.1245 21.4401 52.0585 21.2751 51.9719 21.1421C51.8853 21.0092 51.7783 20.9095 51.6507 20.843C51.5232 20.7742 51.3785 20.7398 51.2168 20.7398C51.0483 20.7398 50.9014 20.7742 50.7761 20.843C50.6508 20.9095 50.5449 21.0092 50.4583 21.1421C50.3741 21.2751 50.3091 21.4401 50.2636 21.6372C50.2203 21.8321 50.1987 22.0567 50.1987 22.3111V22.5415C50.1987 22.7936 50.2203 23.0183 50.2636 23.2154C50.3091 23.4102 50.3752 23.5753 50.4618 23.7105C50.5483 23.8457 50.6542 23.9477 50.7795 24.0165C50.9071 24.0853 51.0551 24.1196 51.2237 24.1196C51.3854 24.1196 51.5289 24.0853 51.6542 24.0165C51.7817 23.9477 51.8888 23.8457 51.9753 23.7105C52.0619 23.5753 52.1268 23.4102 52.1701 23.2154C52.2156 23.0183 52.2384 22.7936 52.2384 22.5415Z" fill="white"></path>
<path d="M58.1491 19.925V24.9311H57.0387L55.1596 21.6957V24.9311H54.0458V19.925H55.1596L57.0422 23.1604V19.925H58.1491Z" fill="white"></path>
<path d="M61.5521 23.6108C61.5521 23.526 61.5396 23.4503 61.5145 23.3839C61.4895 23.3151 61.4439 23.2521 61.3778 23.1948C61.3118 23.1374 61.2184 23.0801 61.0977 23.0228C60.977 22.9632 60.8187 22.9025 60.6228 22.8406C60.3996 22.7673 60.1866 22.6847 59.9839 22.5931C59.7834 22.4991 59.6046 22.3902 59.4475 22.2664C59.2903 22.1427 59.1662 21.9982 59.075 21.8332C58.9862 21.6682 58.9418 21.4756 58.9418 21.2556C58.9418 21.0424 58.9885 20.8499 59.0819 20.678C59.1753 20.506 59.3062 20.3594 59.4748 20.2379C59.6433 20.1141 59.8415 20.0201 60.0693 19.9559C60.2971 19.8895 60.5476 19.8562 60.8209 19.8562C61.1854 19.8562 61.5054 19.9215 61.781 20.0522C62.0589 20.1806 62.2753 20.3616 62.4302 20.5954C62.5851 20.827 62.6625 21.0963 62.6625 21.4034H61.5555C61.5555 21.2682 61.527 21.149 61.4701 21.0459C61.4154 20.9404 61.3312 20.8579 61.2173 20.7983C61.1057 20.7387 60.9656 20.7089 60.797 20.7089C60.633 20.7089 60.4952 20.7341 60.3836 20.7845C60.2743 20.8327 60.1911 20.8992 60.1342 20.984C60.0795 21.0688 60.0522 21.1616 60.0522 21.2625C60.0522 21.3427 60.0727 21.416 60.1137 21.4825C60.157 21.5467 60.2185 21.6074 60.2982 21.6647C60.3802 21.7197 60.4804 21.7725 60.5989 21.8229C60.7173 21.8733 60.8528 21.9215 61.0054 21.9673C61.2719 22.0521 61.5077 22.1461 61.7127 22.2492C61.92 22.3524 62.0942 22.4693 62.2354 22.5999C62.3766 22.7306 62.4826 22.8784 62.5532 23.0435C62.6261 23.2085 62.6625 23.3953 62.6625 23.6039C62.6625 23.8262 62.6192 24.0234 62.5327 24.1953C62.4484 24.3672 62.3254 24.5139 62.1637 24.6354C62.0042 24.7546 61.8129 24.8451 61.5897 24.907C61.3665 24.9689 61.117 24.9998 60.8414 24.9998C60.5909 24.9998 60.3438 24.9677 60.1 24.9036C59.8563 24.8371 59.6354 24.7362 59.4372 24.601C59.2413 24.4658 59.0842 24.2938 58.9657 24.0853C58.8496 23.8744 58.7915 23.6245 58.7915 23.3357H59.9053C59.9053 23.487 59.9269 23.6154 59.9702 23.7208C60.0135 23.824 60.075 23.9076 60.1547 23.9718C60.2367 24.036 60.3358 24.0818 60.4519 24.1093C60.5681 24.1368 60.6979 24.1506 60.8414 24.1506C61.0077 24.1506 61.1421 24.1277 61.2446 24.0818C61.3494 24.0337 61.4268 23.9684 61.4769 23.8858C61.527 23.8033 61.5521 23.7116 61.5521 23.6108Z" fill="white"></path>
<path d="M66.0415 19.925H67.1554V23.2119C67.1554 23.6016 67.0734 23.9294 66.9094 24.1953C66.7476 24.4612 66.5221 24.6617 66.2329 24.797C65.9436 24.9322 65.6088 24.9998 65.2284 24.9998C64.8457 24.9998 64.5086 24.9322 64.2171 24.797C63.9278 24.6617 63.7 24.4612 63.5337 24.1953C63.3697 23.9294 63.2877 23.6016 63.2877 23.2119V19.925H64.405V23.2119C64.405 23.4274 64.4369 23.6039 64.5006 23.7414C64.5667 23.8767 64.6612 23.9764 64.7842 24.0406C64.9072 24.1024 65.0553 24.1334 65.2284 24.1334C65.4015 24.1334 65.5484 24.1024 65.6691 24.0406C65.7921 23.9764 65.8844 23.8767 65.9459 23.7414C66.0096 23.6039 66.0415 23.4274 66.0415 23.2119V19.925Z" fill="white"></path>
<path d="M71.1972 24.0646V24.9311H68.686V24.0646H71.1972ZM69.0652 19.925V24.9311H67.9514V19.925H69.0652Z" fill="white"></path>
<path d="M73.3155 19.925V24.9311H72.2051V19.925H73.3155ZM74.8291 19.925V20.7949H70.7223V19.925H74.8291Z" fill="white"></path>
<path d="M76.5647 19.925V24.9311H75.4543V19.925H76.5647Z" fill="white"></path>
<path d="M81.5667 19.925V24.9311H80.4562L78.5771 21.6957V24.9311H77.4633V19.925H78.5771L80.4597 23.1604V19.925H81.5667Z" fill="white"></path>
<path d="M86.3977 22.2871V24.3053C86.3158 24.3993 86.1905 24.5001 86.0219 24.6079C85.8556 24.7156 85.6427 24.8084 85.383 24.8864C85.1234 24.962 84.8136 24.9998 84.4537 24.9998C84.128 24.9998 83.8319 24.9471 83.5654 24.8417C83.2989 24.7339 83.07 24.5769 82.8786 24.3706C82.6873 24.162 82.5392 23.9076 82.4345 23.6073C82.332 23.3071 82.2807 22.9632 82.2807 22.5759V22.2802C82.2807 21.8928 82.332 21.549 82.4345 21.2487C82.537 20.9484 82.6816 20.6952 82.8684 20.4889C83.0552 20.2803 83.2772 20.1221 83.5346 20.0144C83.792 19.9066 84.0767 19.8528 84.3888 19.8528C84.8329 19.8528 85.1962 19.925 85.4787 20.0694C85.7611 20.2115 85.9752 20.4086 86.121 20.6608C86.2691 20.9129 86.3602 21.2029 86.3943 21.5306H85.3215C85.2987 21.3633 85.2532 21.2189 85.1848 21.0974C85.1188 20.9759 85.0243 20.8831 84.9013 20.8189C84.7783 20.7525 84.6188 20.7192 84.4229 20.7192C84.2658 20.7192 84.1234 20.7525 83.9959 20.8189C83.8706 20.8831 83.7647 20.9805 83.6781 21.1112C83.5916 21.2418 83.5255 21.4046 83.48 21.5994C83.4344 21.792 83.4116 22.0166 83.4116 22.2733V22.5759C83.4116 22.8326 83.4344 23.0584 83.48 23.2532C83.5278 23.448 83.5973 23.6108 83.6884 23.7414C83.7795 23.8698 83.8945 23.9672 84.0334 24.0337C84.1747 24.1002 84.3387 24.1334 84.5254 24.1334C84.6712 24.1334 84.7942 24.1219 84.8944 24.099C84.9947 24.0738 85.0767 24.0429 85.1404 24.0062C85.2042 23.9672 85.252 23.9317 85.2839 23.8996V23.0675H84.399V22.2871H86.3977Z" fill="white"></path>
<defs>
<linearGradient id="paint0_linear_164_826" x1="0.000244498" y1="17.5" x2="7.50024" y2="25" gradientUnits="userSpaceOnUse">
<stop offset="0.172153" stop-color="#00EE92"></stop>
<stop offset="1" stop-color="#4515F9"></stop>
</linearGradient>
</defs>
</svg>