<svg id="Layer_1" data-name="Layer 1" xmlns="http://www.w3.org/2000/svg" viewBox="0 0 672.307 547.454">
  <path d="M644.788,355.972C613.161,276.48,531.411,218.141,512.394,130.687,500.143,39.24,363.914,1.838,289.888,50.158c-117.294,76.564-17.617,126.935-247.594,308.08-56.787,44.728-12.267,127.005,16.682,152.546,21.316,18.806,77.885,45.632,127.938,33.726,96.492-22.952,150.338-42.995,193.582-47.01C489.5,487.38,658.283,493.027,644.788,355.972Z" fill="#f4f4f4"></path>
  <g>
    <g>
      <path d="M384.571,339.157c-1.1.513-1.718.775-1.725.778a.605.605,0,1,0,.471,1.115c.026-.011.644-.273,1.767-.8a.605.605,0,1,0-.513-1.1Z" fill="#292a2e"></path>
      <path d="M342.563,158.7q-1.9-.144-3.809-.274a.605.605,0,1,0-.082,1.208q1.9.129,3.8.274h.047a.605.605,0,0,0,.046-1.209Z" fill="#292a2e"></path>
      <path d="M257.136,153.684c-1.253-.243-2.5-.507-3.7-.783a.6.6,0,1,0-.271,1.179c1.216.28,2.475.546,3.743.793a.651.651,0,0,0,.116.011.606.606,0,0,0,.114-1.2Z" fill="#292a2e"></path>
      <path d="M275.929,155.917l-.091,0c-1.241-.064-2.482-.143-3.691-.236a.605.605,0,0,0-.092,1.207c1.218.093,2.47.173,3.715.238l.1,0h.03a.605.605,0,0,0,.029-1.21Z" fill="#292a2e"></path>
      <path d="M247.938,151.487c-1.22-.35-2.436-.725-3.614-1.113a.605.605,0,0,0-.379,1.15c1.193.393,2.424.772,3.659,1.126a.605.605,0,1,0,.334-1.163Z" fill="#292a2e"></path>
      <path d="M285.433,156.328q-1.922-.071-3.8-.148a.594.594,0,0,0-.63.579.606.606,0,0,0,.58.63q1.882.079,3.809.149h.023a.605.605,0,0,0,.021-1.21Z" fill="#292a2e"></path>
      <path d="M239,148.432c-1.175-.472-2.343-.973-3.472-1.488a.605.605,0,0,0-.5,1.1c1.145.523,2.331,1.031,3.523,1.51a.6.6,0,0,0,.226.044.605.605,0,0,0,.225-1.167Z" fill="#292a2e"></path>
      <path d="M266.491,155.13c-1.253-.147-2.517-.313-3.756-.494a.6.6,0,0,0-.175,1.2c1.251.184,2.526.351,3.79.5a.563.563,0,0,0,.071,0,.605.605,0,0,0,.07-1.206Z" fill="#292a2e"></path>
      <path d="M333.035,158.068q-1.905-.109-3.807-.208a.605.605,0,1,0-.062,1.209q1.9.1,3.8.208H333a.605.605,0,0,0,.034-1.21Z" fill="#292a2e"></path>
      <path d="M323.515,157.588q-1.908-.084-3.808-.158h-.024a.605.605,0,0,0-.024,1.21q1.9.075,3.8.159h.027a.605.605,0,0,0,.026-1.21Z" fill="#292a2e"></path>
      <path d="M313.993,157.219q-1.912-.066-3.809-.126a.605.605,0,1,0-.038,1.21q1.894.06,3.805.126h.021a.605.605,0,0,0,.021-1.21Z" fill="#292a2e"></path>
      <path d="M230.47,144.405c-1.108-.61-2.2-1.252-3.253-1.907a.6.6,0,1,0-.641,1.026c1.069.668,2.182,1.321,3.309,1.941a.605.605,0,1,0,.585-1.06Z" fill="#292a2e"></path>
      <path d="M294.949,156.639l-3.807-.118a.623.623,0,0,0-.624.586.607.607,0,0,0,.586.625q1.89.06,3.81.117h.018a.605.605,0,0,0,.017-1.21Z" fill="#292a2e"></path>
      <path d="M212.419,72.388c.668-1.048,1.379-2.1,2.112-3.129a.605.605,0,1,0-.986-.7c-.745,1.045-1.467,2.115-2.146,3.18a.605.605,0,1,0,1.02.651Z" fill="#292a2e"></path>
      <path d="M202.506,99.325l.045,0a.6.6,0,0,0,.6-.561c.091-1.233.233-2.49.422-3.735a.605.605,0,0,0-1.2-.182c-.194,1.276-.339,2.564-.432,3.828A.605.605,0,0,0,202.506,99.325Z" fill="#292a2e"></path>
      <path d="M203.426,108.132c-.165-1.227-.281-2.483-.343-3.736a.605.605,0,0,0-1.209.06c.064,1.287.182,2.578.352,3.838a.607.607,0,0,0,.6.524.752.752,0,0,0,.082,0A.606.606,0,0,0,203.426,108.132Z" fill="#292a2e"></path>
      <path d="M205.451,85.143a.605.605,0,0,0-.768.377c-.417,1.221-.794,2.459-1.121,3.68a.605.605,0,0,0,1.17.312c.319-1.194.688-2.405,1.1-3.6A.605.605,0,0,0,205.451,85.143Z" fill="#292a2e"></path>
      <path d="M204.536,113.645a.605.605,0,1,0-1.169.316c.333,1.234.726,2.471,1.166,3.676a.605.605,0,0,0,1.137-.415C205.241,116.05,204.86,114.846,204.536,113.645Z" fill="#292a2e"></path>
      <path d="M452.423,236.343c.2,1.242.382,2.5.529,3.742a.6.6,0,0,0,.6.534.579.579,0,0,0,.072,0,.607.607,0,0,0,.53-.673c-.149-1.258-.33-2.535-.537-3.8a.6.6,0,1,0-1.194.2Z" fill="#292a2e"></path>
      <path d="M451.327,230.78a.606.606,0,0,0,.59.47.586.586,0,0,0,.136-.016.6.6,0,0,0,.454-.725c-.281-1.225-.6-2.475-.932-3.715a.605.605,0,0,0-1.168.318C450.74,228.336,451.049,229.57,451.327,230.78Z" fill="#292a2e"></path>
      <path d="M207.114,80.963a.6.6,0,0,0,.8-.3c.51-1.125,1.068-2.264,1.659-3.385a.605.605,0,1,0-1.071-.564c-.6,1.142-1.17,2.3-1.69,3.45A.6.6,0,0,0,207.114,80.963Z" fill="#292a2e"></path>
      <path d="M213.081,130.205a.605.605,0,1,0-.941.761c.8.983,1.647,1.958,2.531,2.9a.6.6,0,1,0,.881-.829C214.689,132.117,213.857,131.165,213.081,130.205Z" fill="#292a2e"></path>
      <path d="M220.412,61.054a.606.606,0,0,0-.855.043c-.861.954-1.7,1.929-2.506,2.9a.605.605,0,0,0,.933.771c.79-.957,1.622-1.919,2.471-2.859A.6.6,0,0,0,220.412,61.054Z" fill="#292a2e"></path>
      <path d="M222.559,139.3c-1.008-.762-1.993-1.557-2.929-2.365a.606.606,0,0,0-.791.917c.956.825,1.962,1.637,2.99,2.414a.605.605,0,0,0,.73-.966Z" fill="#292a2e"></path>
      <path d="M207.937,122.371a.605.605,0,0,0-1.075.557c.587,1.131,1.232,2.256,1.916,3.343a.605.605,0,1,0,1.024-.645C209.136,124.567,208.508,123.472,207.937,122.371Z" fill="#292a2e"></path>
      <path d="M352.057,159.534q-1.895-.189-3.793-.359a.605.605,0,0,0-.108,1.206q1.893.169,3.78.358l.061,0a.606.606,0,0,0,.06-1.208Z" fill="#292a2e"></path>
      <path d="M227.188,54.379a.606.606,0,0,0-.855-.044c-.95.859-1.889,1.741-2.791,2.623a.605.605,0,0,0,.846.866c.891-.871,1.818-1.742,2.756-2.591A.6.6,0,0,0,227.188,54.379Z" fill="#292a2e"></path>
      <path d="M304.47,156.918l-3.808-.111a.605.605,0,1,0-.035,1.21l3.807.111h.018a.605.605,0,0,0,.018-1.21Z" fill="#292a2e"></path>
      <path d="M445.942,213.209a.606.606,0,0,0,.555-.845c-.5-1.162-1.026-2.336-1.566-3.489a.6.6,0,1,0-1.1.512c.534,1.143,1.055,2.305,1.55,3.456A.606.606,0,0,0,445.942,213.209Z" fill="#292a2e"></path>
      <path d="M442.427,290.472a.6.6,0,0,0-.832.2c-.655,1.069-1.341,2.14-2.04,3.185a.606.606,0,0,0,1.007.673c.707-1.058,1.4-2.143,2.065-3.226A.6.6,0,0,0,442.427,290.472Z" fill="#292a2e"></path>
      <path d="M430.233,305.773c-.838.929-1.708,1.861-2.583,2.772a.605.605,0,1,0,.872.839c.885-.919,1.763-1.862,2.61-2.8a.605.605,0,1,0-.9-.811Z" fill="#292a2e"></path>
      <path d="M441.318,204.291a.605.605,0,1,0,1.074-.559c-.582-1.117-1.19-2.25-1.81-3.366a.6.6,0,0,0-1.058.587C440.138,202.06,440.742,203.183,441.318,204.291Z" fill="#292a2e"></path>
      <path d="M428.726,185.391a.605.605,0,0,0-.811.9c.937.847,1.85,1.724,2.711,2.607a.6.6,0,1,0,.866-.845C430.613,187.151,429.683,186.256,428.726,185.391Z" fill="#292a2e"></path>
      <path d="M437.113,298.363a.607.607,0,0,0-.848.118c-.75.994-1.536,2-2.335,2.979a.605.605,0,0,0,.939.764c.808-.994,1.6-2.008,2.362-3.013A.6.6,0,0,0,437.113,298.363Z" fill="#292a2e"></path>
      <path d="M435.3,192.366a.605.605,0,1,0-.948.753c.779.981,1.531,2,2.235,3.025a.605.605,0,1,0,1-.685C436.861,194.41,436.091,193.369,435.3,192.366Z" fill="#292a2e"></path>
      <path d="M453.963,254.605a.6.6,0,0,0-.648.559c-.092,1.253-.217,2.516-.37,3.754a.6.6,0,0,0,.526.675.628.628,0,0,0,.075,0,.605.605,0,0,0,.6-.53c.156-1.258.283-2.542.376-3.815A.6.6,0,0,0,453.963,254.605Z" fill="#292a2e"></path>
      <path d="M454.634,245.672A.591.591,0,0,0,454,245.1a.6.6,0,0,0-.574.634c.061,1.258.092,2.528.093,3.776a.605.605,0,0,0,1.21,0C454.729,248.239,454.7,246.949,454.634,245.672Z" fill="#292a2e"></path>
      <path d="M452.751,264.028a.6.6,0,0,0-.713.474c-.246,1.224-.528,2.461-.837,3.678a.606.606,0,0,0,.438.736.591.591,0,0,0,.149.019.607.607,0,0,0,.587-.457c.313-1.236.6-2.494.85-3.738A.6.6,0,0,0,452.751,264.028Z" fill="#292a2e"></path>
      <path d="M449.336,222.1a.586.586,0,0,0,.192-.032.6.6,0,0,0,.382-.765c-.4-1.193-.826-2.407-1.274-3.609a.605.605,0,0,0-1.134.423c.443,1.189.867,2.389,1.26,3.569A.607.607,0,0,0,449.336,222.1Z" fill="#292a2e"></path>
      <path d="M446.891,282.074a.605.605,0,0,0-.806.29c-.532,1.129-1.1,2.267-1.687,3.38a.606.606,0,0,0,.253.818.605.605,0,0,0,.818-.253c.6-1.13,1.171-2.283,1.711-3.429A.605.605,0,0,0,446.891,282.074Z" fill="#292a2e"></path>
      <path d="M450.371,273.228a.6.6,0,0,0-.766.382c-.4,1.181-.826,2.375-1.283,3.55a.605.605,0,1,0,1.128.439c.464-1.193.9-2.406,1.3-3.6A.605.605,0,0,0,450.371,273.228Z" fill="#292a2e"></path>
      <path d="M361.522,160.613q-1.889-.243-3.788-.465a.605.605,0,0,0-.14,1.2q1.892.222,3.773.464a.681.681,0,0,0,.078,0,.605.605,0,0,0,.077-1.206Z" fill="#292a2e"></path>
      <path d="M393,334.819c-1.112.62-2.237,1.228-3.342,1.808a.605.605,0,0,0,.563,1.072c1.113-.585,2.247-1.2,3.368-1.823a.605.605,0,1,0-.589-1.057Z" fill="#292a2e"></path>
      <path d="M398.589,169.934a.605.605,0,0,0,.2-1.178c-1.187-.406-2.41-.805-3.636-1.186a.606.606,0,1,0-.359,1.157c1.215.377,2.428.772,3.6,1.174A.611.611,0,0,0,398.589,169.934Z" fill="#292a2e"></path>
      <path d="M390.066,166.72a.6.6,0,0,0-.427-.741c-1.214-.326-2.46-.645-3.7-.948a.605.605,0,0,0-.287,1.176c1.234.3,2.471.618,3.676.941a.6.6,0,0,0,.741-.428Z" fill="#292a2e"></path>
      <path d="M380.348,163.76c-1.225-.259-2.485-.513-3.744-.754a.605.605,0,0,0-.228,1.189c1.252.24,2.5.492,3.722.749a.605.605,0,0,0,.25-1.184Z" fill="#292a2e"></path>
      <path d="M401.152,329.956c-1.059.675-2.145,1.348-3.227,2a.605.605,0,0,0,.314,1.123.6.6,0,0,0,.312-.088c1.091-.659,2.184-1.338,3.251-2.017a.605.605,0,0,0-.65-1.021Z" fill="#292a2e"></path>
      <path d="M370.964,162c-1.226-.2-2.5-.4-3.771-.595a.605.605,0,0,0-.18,1.2c1.27.191,2.533.39,3.753.592a.563.563,0,0,0,.1.009.606.606,0,0,0,.1-1.2Z" fill="#292a2e"></path>
      <path d="M416.511,318.828c-.969.8-1.964,1.6-2.958,2.376a.605.605,0,0,0,.746.953c1-.784,2-1.59,2.982-2.395a.605.605,0,0,0-.77-.934Z" fill="#292a2e"></path>
      <path d="M423.614,312.55c-.9.86-1.843,1.725-2.787,2.57a.605.605,0,0,0,.807.9c.953-.853,1.9-1.726,2.814-2.594a.605.605,0,0,0-.834-.878Z" fill="#292a2e"></path>
      <path d="M423.921,182.821a.6.6,0,0,0,.364-1.088c-1-.755-2.055-1.5-3.127-2.222a.605.605,0,1,0-.674,1c1.054.707,2.088,1.442,3.073,2.184A.6.6,0,0,0,423.921,182.821Z" fill="#292a2e"></path>
      <path d="M409,324.625c-1.01.731-2.054,1.467-3.1,2.188a.605.605,0,1,0,.686,1c1.056-.726,2.108-1.468,3.126-2.2a.605.605,0,0,0-.71-.98Z" fill="#292a2e"></path>
      <path d="M415.967,177.622a.606.606,0,0,0,.3-1.132c-1.087-.618-2.222-1.23-3.372-1.819a.605.605,0,1,0-.551,1.078c1.134.58,2.253,1.184,3.325,1.794A.607.607,0,0,0,415.967,177.622Z" fill="#292a2e"></path>
      <path d="M407.46,173.372a.6.6,0,0,0,.244-1.159c-1.145-.5-2.334-1-3.533-1.474a.606.606,0,0,0-.447,1.126c1.187.47,2.362.96,3.494,1.456A.6.6,0,0,0,407.46,173.372Z" fill="#292a2e"></path>
      <path d="M232.243,49.372q-.763.6-1.509,1.2a.605.605,0,1,0,.761.941q.738-.6,1.493-1.187a.605.605,0,0,0-.745-.954Z" fill="#292a2e"></path>
    </g>
    <g>
      <polygon points="229.48 31.896 232.117 51.238 298.937 5.519 229.48 31.896" fill="#0cbc8b"></polygon>
      <polygon points="229.48 31.896 232.117 51.238 298.937 5.519 229.48 31.896" fill="#0a0a0a" opacity="0.2"></polygon>
      <polygon points="233.876 37.171 232.117 51.238 283.112 15.191 233.876 37.171" fill="#0cbc8b"></polygon>
      <polygon points="233.876 37.171 232.117 51.238 283.112 15.191 233.876 37.171" fill="#0a0a0a" opacity="0.1"></polygon>
      <polygon points="221.567 22.224 298.937 5.519 249.701 59.151 233.876 37.171 298.937 5.519 229.48 31.896 221.567 22.224" fill="#0cbc8b"></polygon>
    </g>
  </g>
  <g>
    <path d="M644.424,90.088A90.148,90.148,0,0,1,522.7,174.458a88.956,88.956,0,0,1-18.169-9.3,90.487,90.487,0,0,1-26.88-27.77v-.01a90.09,90.09,0,1,1,166.77-47.29Z" fill="#fff"></path>
    <path d="M644.424,90.088A90.148,90.148,0,0,1,522.7,174.458a88.956,88.956,0,0,1-18.169-9.3,90.487,90.487,0,0,1-26.88-27.77v-.01a90.09,90.09,0,1,1,166.77-47.29Z" fill="#367cff" opacity="0.2"></path>
    <g>
      <path d="M539.306,35.813s-6.612-4.78-8.458-16.058c-1.429-8.733,6.766-3.225,6.766-3.225s-.967-6.3,3.645-5.766,7.326,7.113,7.326,7.113" fill="#0c0c0c"></path>
      <path d="M565.055,11.014s22.879,1.978,15.263,33.082l-2.017.177-4.1.359" fill="#0c0c0c"></path>
      <g>
        <path id="sk" d="M543.392,76.693c.1-.013,1.215,18.472,22.688,16.86,14.866-1.114,20.167-16.886,20.508-16.886a35.285,35.285,0,0,1-5.014-1.216c-2.341-1.258-5.237-2.567-5.992-7.112-.435-2.621.3-16.025.076-18.676l-22.819,5.094c.318,5.6,2.55,18.578-5.272,20.875C546.266,76.012,544.864,76.361,543.392,76.693Z" fill="#E98862"></path>
        <path id="sh" d="M552.519,70.328a16.545,16.545,0,0,0,.686-3.542,37.744,37.744,0,0,0-.149-8.238,25.01,25.01,0,0,0,12.612-5.525c.424,1.565,2.754,8.4,2.109,9.89C566.557,65.724,560.826,70.328,552.519,70.328Z" fill="#0c0c0c" opacity="1"></path>
        <path d="M557.609,66.856c8.984-.992,19.639-6.9,19.543-19.121l-.086-11.027c-.1-12.221-6.593-22.078-18.1-21.987h0c-11.507.09-20.03,10.064-19.934,22.285l.039,4.882a36.743,36.743,0,0,0,.468,5c.681,4.378,1.732,11.035,4.805,15.489C547.247,66.584,551.869,67.49,557.609,66.856Z" fill="#E98862"></path>
        <circle cx="542.952" cy="42.741" r="1.417" fill="#0c0c0c"></circle>
        <circle cx="555.923" cy="41.693" r="1.417" fill="#0c0c0c"></circle>
        <path d="M576.467,51.463c3.5-.027,6.3-3.79,6.275-7.287s-2.878-5.4-6.375-5.376l-1.783,2.358L573.46,51.487Z" fill="#E98862"></path>
      </g>
      <path d="M572.873,45.917s-1.536-17.263-6.8-18.223c-3.506-.639-11.871,4.487-19.744,3.153-3.444-.584-6.683.332-6.981,1.96-.118.644-2.445-8.533,2.783-15.642,4.163-5.66,18.129-7.521,24.536-5.825,17.738,4.7,10.437,28.207,10.437,28.207l-.664,5.976Z" fill="#0c0c0c"></path>
      <g opacity="1">
        <path d="M550.8,52.05h-.022c-1.127.012-3.018-.094-3.028-.937-.007-.7,1.826-8.258,2.035-9.117a.287.287,0,0,1,.558.135c-.815,3.348-2.024,8.5-2.019,8.976a5.156,5.156,0,0,0,2.447.369.287.287,0,0,1,.029.573Z" fill="#0c0c0c"></path>
      </g>
      <path d="M546.79,35.051a6.754,6.754,0,0,0-3.575.065,5.93,5.93,0,0,0-1.617.741,6.987,6.987,0,0,0-1.344,1.136.364.364,0,0,0,.507.523l.021-.019a6.2,6.2,0,0,1,1.242-.938A5.073,5.073,0,0,1,543.45,36a5.761,5.761,0,0,1,3,.093l.037.012a.548.548,0,0,0,.337-1.043Z" fill="#0c0c0c"></path>
      <path d="M555.176,35.443a5.761,5.761,0,0,1,2.933-.612,5.077,5.077,0,0,1,1.5.3,6.163,6.163,0,0,1,1.385.708l.024.015a.365.365,0,0,0,.409-.6,7.03,7.03,0,0,0-1.521-.885,5.968,5.968,0,0,0-1.722-.448,6.756,6.756,0,0,0-3.532.558.547.547,0,1,0,.459.994l.026-.012Z" fill="#0c0c0c"></path>
      <ellipse cx="549.554" cy="16.113" rx="7.047" ry="4.787" transform="translate(432.412 553.279) rotate(-79.377)" fill="#0c0c0c"></ellipse>
      <path d="M615.834,120.148c-.891,9.5-1.511,24.52-1.91,37.5a90.219,90.219,0,0,1-91.221,16.81c-.489-8.11-1.26-20.69-1.979-32.07-.721-11.36-1.39-21.53-1.67-24.87-1.13-13.26-5-21.98-2.62-29.33a14.894,14.894,0,0,1,3.519-5.79c5.971-6.31,21.37-6.77,27.56-6.77.11,0-1.25,14.33,19.071,13.37,14.929-.7,15.56-13.37,15.56-13.37s7.39.48,12.309,1.14c8.05,1.09,13.36,3.82,17.581,8.04C615.964,88.748,618.364,93,615.834,120.148Z" fill="#367cff"></path>
      <path d="M547.894,103.568l-27.17,38.81v.01l-14.54,20.76a18.127,18.127,0,0,1-1.65,2.01,90.487,90.487,0,0,1-26.88-27.77v-.01l11-52.58,26.3,5.5,1.481-2.11v-.01l3.12-4.45Z" fill="#367cff"></path>
      <rect x="490.627" y="134.094" width="31.333" height="0.494" transform="translate(293.539 613.002) rotate(-80.896)" fill="#0c0c0c"></rect>
      <g>
        <path d="M519.961,81.113a2.221,2.221,0,0,0-.4-3.2,2.3,2.3,0,0,0-3.113.474l-1.094,1.443,3.2-12.945a2.1,2.1,0,1,0-4.07-1.007l-1.333,5.391a.211.211,0,0,0-.043-.02,2.224,2.224,0,0,0-2.048-2.305,2.277,2.277,0,0,0-2.331,1.692l-.206.727a.2.2,0,0,0-.072.026,2.22,2.22,0,0,0-1.727-2.271,2.308,2.308,0,0,0-2.662,1.684l-.507,1.792a.2.2,0,0,0-.259-.118,2.217,2.217,0,0,0-1.987-1.723,2.276,2.276,0,0,0-2.331,1.691l-2.767,9.712a11.191,11.191,0,0,0,3.905,11.888l5.669,4.4Z" fill="#E98862"></path>
        <g opacity="0.2">
          <path d="M511.6,76.719a.2.2,0,0,1,0-.073l1.234-5.251a.208.208,0,1,1,.406.095l-1.234,5.252a.209.209,0,0,1-.41-.023Z" fill="#0c0c0c"></path>
          <path d="M507.348,75.714a.211.211,0,0,1,0-.075l1-4.12a.209.209,0,0,1,.406.1l-1,4.12a.209.209,0,0,1-.41-.024Z" fill="#0c0c0c"></path>
          <path d="M502.732,74.65a.231.231,0,0,1,0-.069l.427-1.957a.209.209,0,0,1,.408.089l-.427,1.957a.209.209,0,0,1-.412-.02Z" fill="#0c0c0c"></path>
        </g>
      </g>
      <g>
        <path d="M500.327,118.081h17.521a3.059,3.059,0,0,0,3-3.656l-6.932-34.838a3.059,3.059,0,0,0-3.026-2.462l-17.075.144a3.059,3.059,0,0,0-2.981,3.621l6.486,34.694A3.058,3.058,0,0,0,500.327,118.081Z" fill="#262626"></path>
        <path d="M497.866,98.679a2.261,2.261,0,0,1,2.529-.911.173.173,0,0,1,.239-.157l-1.36-1.357a2.349,2.349,0,0,1-.179-3.2,2.261,2.261,0,0,1,2.879-.41c0-.022.018-.041.025-.062l-.56-.559a2.318,2.318,0,0,1-.35-2.912,2.266,2.266,0,0,1,3.487-.352l1.292,1.289c.006-.008,0-.019.01-.026s.024-.007.034-.015a2.262,2.262,0,0,1,.307-2.8c.873-1,2.432-.511,3.267.323l7.884,7.722-.24-.36-1.117-2.845a2.35,2.35,0,0,1,1.122-3.005,2.263,2.263,0,0,1,3.045,1.233l6.527,16.14s-13.712,9.923-17,6.643l-11.49-11.46A2.318,2.318,0,0,1,497.866,98.679Z" fill="#E98862"></path>
        <g opacity="0.2">
          <path d="M513.435,97.324a.209.209,0,0,1-.292,0l-7.26-7.011a.209.209,0,1,1,.291-.3l7.259,7.01a.21.21,0,0,1,.006.3Z" fill="#0c0c0c"></path>
          <path d="M510.432,100.611a.209.209,0,0,1-.292,0l-8.1-7.824a.209.209,0,0,1,0-.3.215.215,0,0,1,.295,0l8.1,7.823a.21.21,0,0,1,0,.3Z" fill="#0c0c0c"></path>
          <path d="M507.2,104.19a.209.209,0,0,1-.292,0l-6.463-6.241a.209.209,0,0,1,0-.295.211.211,0,0,1,.3-.005l6.462,6.24a.21.21,0,0,1,.006.3Z" fill="#0c0c0c"></path>
        </g>
      </g>
      <path d="M588.012,97.286l-27.791,38.049L526.96,98.114l-22.584,18.747,43.9,54.02a17.38,17.38,0,0,0,3.4,3.318c7.5,5.48,19.509,3.346,24.988-4.156l.367-.5,38.916-51.851Z" fill="#367cff"></path>
      <path d="M561.625,177.517a17.094,17.094,0,0,1-10.094-3.119,17.588,17.588,0,0,1-3.454-3.365l-44.047-54.2,22.961-19.06.158.187L560.2,136.906l23.373-33.962.408.28-23.74,34.494L526.93,98.46,504.722,116.9l43.742,53.83a16.316,16.316,0,0,0,16.423,6.021,18.066,18.066,0,0,0,11.578-6.849l.366-.5,30.41-40.2.394.3-30.407,40.2-.364.5a18.559,18.559,0,0,1-11.894,7.044A20.037,20.037,0,0,1,561.625,177.517Z" fill="#0c0c0c"></path>
      <rect x="562.257" y="136.514" width="0.494" height="7.328" transform="translate(35.218 381.073) rotate(-38.547)" fill="#0c0c0c"></rect>
      <path d="M548.459,54.559a16.711,16.711,0,0,0,10.347-3.234.676.676,0,0,1,1.073.59c-.162,2.2-1.087,6.261-5.656,6.951-2.95.446-5.185-1.746-6.326-3.217A.676.676,0,0,1,548.459,54.559Z" fill="#fff"></path>
    </g>
  </g>
  <circle cx="554.337" cy="90.086" r="90.086" fill="none"></circle>
  <g>
    <circle cx="91.841" cy="374.491" r="91.841" fill="#fff"></circle>
    <path d="M183.684,374.488a91.841,91.841,0,1,1-91.84-91.84A91.5,91.5,0,0,1,183.684,374.488Z" fill="#367cff" opacity="0.3"></path>
    <g>
      <path d="M172.534,418.4a92.317,92.317,0,0,1-25.54,29.53l-23.14-25.78L98.774,394.2l21.25-19.8,8.359,8.66,12.8,13.24,19.269-7.79Z" fill="#6b6c70"></path>
      <path d="M145.454,432.4a.21.21,0,0,0,.07-.012.215.215,0,0,0,.133-.272L131.083,390.04a.216.216,0,0,0-.273-.132.214.214,0,0,0-.132.272l14.574,42.079A.215.215,0,0,0,145.454,432.4Z" fill="#0c0c0c"></path>
      <g>
        <path d="M50.913,322.4s1,27.661,19.458,28.931l3.123-36.475Z" fill="#0a0a0a"></path>
        <circle cx="54.469" cy="346.043" r="10.937" fill="#0a0a0a"></circle>
        <path id="sk-2" data-name="sk" d="M97.263,364.171c-.1-.013-1.178,17.923-22.014,16.359-14.425-1.081-19.568-16.385-19.9-16.385a34.25,34.25,0,0,0,4.865-1.179c2.271-1.221,5.081-2.491,5.814-6.9.421-2.542-.294-15.548-.074-18.12L88.1,342.886c-.31,5.432-2.475,18.026,5.114,20.255C94.475,363.51,95.835,363.849,97.263,364.171Z" fill="#E98862"></path>
        <path id="sh-2" data-name="sh" d="M88.408,357.994a16.007,16.007,0,0,1-.666-3.436,36.632,36.632,0,0,1,.145-7.993A24.28,24.28,0,0,1,75.649,341.2c-.411,1.519-2.672,8.153-2.046,9.6C74.787,353.527,80.347,357.994,88.408,357.994Z" fill="#0c0c0c" opacity="0.5"></path>
        <path d="M84.94,353.16c-8.77.112-19.733-4.313-21.092-16.093l-1.226-10.629c-1.359-11.781,3.726-22.044,14.818-23.324h0c11.092-1.279,20.484,7.314,21.843,19.094l.543,4.706C100.347,331.434,100.586,352.962,84.94,353.16Z" fill="#E98862"></path>
        <circle cx="96.647" cy="325.22" r="1.375" fill="#0c0c0c"></circle>
        <circle cx="82.59" cy="326.828" r="1.375" fill="#0c0c0c"></circle>
        <path d="M89.566,337.3l.022,0a12.243,12.243,0,0,0,1.336-.239c.658-.161,1.526-.442,1.458-1.031-.077-.672-2.751-7.7-3.056-8.5a.282.282,0,1,0-.527.2c1.141,2.994,2.971,7.912,3.023,8.364a5.029,5.029,0,0,1-2.3.646.282.282,0,0,0,.043.562Z" fill="#0c0c0c" opacity="0.5"></path>
        <path d="M87.583,342.2a11.519,11.519,0,0,0,5.115-1.532.282.282,0,1,0-.272-.493c-3.373,1.866-6.6,1.974-9.327.313a1.754,1.754,0,0,0-.171-.1.282.282,0,0,0-.229.515c.022.011.057.033.107.063A8.448,8.448,0,0,0,87.583,342.2Z" fill="#0c0c0c" opacity="0.5"></path>
        <path d="M53.6,329.459l9.939-1.089C71.189,325.9,74.365,313.2,74.365,313.2s6.85,7.791,27.152,4.234c0,0-.786-26.173-31.661-22.489C59.1,296.233,51,307.011,50.914,321.108,50.856,330.986,53.6,329.459,53.6,329.459Z" fill="#0a0a0a"></path>
        <path d="M64.951,340.576c-3.371.389-6.519-2.9-6.908-6.272s2.129-5.545,5.5-5.934l2,2.058,2.309,9.814Z" fill="#E98862"></path>
        <path d="M91.78,321.789A6.338,6.338,0,0,1,95.034,321a5.594,5.594,0,0,1,1.649.287,6.614,6.614,0,0,1,1.5.714.215.215,0,0,1-.215.373l-.015-.008a6.172,6.172,0,0,0-1.414-.615,5.083,5.083,0,0,0-1.514-.212,5.781,5.781,0,0,0-2.9.8l-.021.013a.324.324,0,0,1-.337-.553Z" fill="#0c0c0c"></path>
        <path d="M82.875,323.428a5.783,5.783,0,0,0-3-.13,5.074,5.074,0,0,0-1.428.545,6.136,6.136,0,0,0-1.241.915l-.012.011a.215.215,0,0,1-.293-.316,6.588,6.588,0,0,1,1.3-1.031,5.609,5.609,0,0,1,1.543-.648,6.371,6.371,0,0,1,3.348.044.324.324,0,0,1-.184.621l-.009,0Z" fill="#0c0c0c"></path>
        <path d="M87.771,344.864a5.876,5.876,0,0,0,.97-.123.282.282,0,0,0-.116-.552,3.645,3.645,0,0,1-2.98-.423.282.282,0,0,0-.357.437A3.825,3.825,0,0,0,87.771,344.864Z" fill="#0c0c0c" opacity="1"></path>
        <ellipse cx="80.618" cy="335.595" rx="2.62" ry="1.922" transform="translate(-11.692 3.026) rotate(-2.005)" fill="#0c0c0c" opacity="0.1"></ellipse>
        <path d="M96.164,334.588c.04,1.059,1.242,1.877,2.688,1.828a3.588,3.588,0,0,0,.741-.1c.171-1.244.276-2.447.333-3.563a3.316,3.316,0,0,0-1.21-.174C97.27,332.624,96.128,333.525,96.164,334.588Z" fill="#0c0c0c" opacity="0.1"></path>
      </g>
      <path d="M128.383,383.058c-.06,6.26-2.209,13.73-2.979,22.75-.2,2.41-.8,8.59-1.55,16.34-1.17,12.23-2.75,28.39-3.791,39.75a91.907,91.907,0,0,1-93.079-22.39c-.45-11.6-1.041-23.39-1.9-31.05-1.85-16.7-1.35-27.26,1.32-32.2,4.37-8.07,12.15-10.53,20.289-11.64,4.971-.67,12.44-1.15,12.44-1.15s.63,12.8,15.721,13.51c20.54.97,19.17-13.51,19.269-13.51,7.45,0,21.57,1.78,26.981,5.47C126.844,372.838,128.453,377.468,128.383,383.058Z" fill="#6b6c70"></path>
      <path d="M70.051,456.533a16.052,16.052,0,0,0,13.955-8.119l29.108-54.244L88.872,378.676,70.347,410.044l-20.024-34.6-26,19.077,31.634,53.64a16.052,16.052,0,0,0,13.952,8.371Z" fill="#6b6c70"></path>
      <path d="M124.351,422.978a.213.213,0,0,0,.213-.2l.846-11.54a.215.215,0,0,0-.2-.229.219.219,0,0,0-.23.2l-.845,11.541a.215.215,0,0,0,.2.229Z" fill="#0c0c0c"></path>
      <g>
        <path d="M139.058,396.267H121.1a3.136,3.136,0,0,1-3.076-3.748l7.107-35.713a3.136,3.136,0,0,1,3.1-2.524l17.5.147a3.136,3.136,0,0,1,3.056,3.712l-6.649,35.566A3.136,3.136,0,0,1,139.058,396.267Z" fill="#262626"></path>
        <path d="M125.222,376.378a2.316,2.316,0,0,1,2.593-.934.209.209,0,0,1,.045-.116.2.2,0,0,1,.2-.045l-1.394-1.391a2.407,2.407,0,0,1-.183-3.283,2.317,2.317,0,0,1,2.951-.42c0-.023.018-.042.025-.064l-.574-.573a2.376,2.376,0,0,1-.358-2.985,2.322,2.322,0,0,1,3.574-.361l1.324,1.321c.006-.008,0-.019.011-.026s.024-.008.034-.016a2.317,2.317,0,0,1,.316-2.875c.9-1.024,2.492-.523,3.349.331l8.081,7.916-.246-.369-1.144-2.917a2.407,2.407,0,0,1,1.149-3.08,2.32,2.32,0,0,1,3.122,1.264l6.691,16.546s-14.057,10.172-17.428,6.81l-11.779-11.748A2.376,2.376,0,0,1,125.222,376.378Z" fill="#E98862"></path>
        <g opacity="0.2">
          <path d="M141.183,374.988a.215.215,0,0,1-.3,0l-7.442-7.187a.214.214,0,0,1,.3-.308l7.442,7.187a.215.215,0,0,1,0,.3Z" fill="#0c0c0c"></path>
          <path d="M138.1,378.358a.215.215,0,0,1-.3,0l-8.305-8.021a.213.213,0,0,1,0-.3.221.221,0,0,1,.3-.006l8.306,8.021a.215.215,0,0,1,0,.3Z" fill="#0c0c0c"></path>
          <path d="M134.79,382.027a.214.214,0,0,1-.3,0l-6.626-6.4a.214.214,0,1,1,.3-.308l6.625,6.4a.213.213,0,0,1,0,.3Z" fill="#0c0c0c"></path>
        </g>
      </g>
      <path d="M172.693,418.108c-.06.1-.109.19-.159.29a92.192,92.192,0,0,1-22.081,26.79l-19.13-55.24,25.761-10.05Z" fill="#6b6c70"></path>
      <g>
        <path d="M92.836,381.208l15.395,9.838,8.354-5.679a2.338,2.338,0,0,0,.9-2.817,2.274,2.274,0,0,0-2.315-1.378.173.173,0,0,0-.031-.111c-.01-.015-.015-.031-.03-.041a.088.088,0,0,0-.025-.02.124.124,0,0,0-.031-.02.236.236,0,0,0-.086-.02l0,0,1.581-1.069a2.365,2.365,0,0,0,.78-3.131,2.274,2.274,0,0,0-2.766-.948.22.22,0,0,0,0-.081l.643-.435a2.329,2.329,0,0,0,.892-2.812,2.272,2.272,0,0,0-2.9-1.251h0c-.01-.01-.02-.026-.03-.036l4.817-3.034a2.149,2.149,0,0,0-2.289-3.638l-11.571,7.285,1.053-1.525a2.367,2.367,0,0,0-.542-3.186,2.278,2.278,0,0,0-3.242.643Z" fill="#E98862"></path>
        <g opacity="0.2">
          <path d="M108.36,374.458a.2.2,0,0,0,.07-.027l4.713-2.893a.214.214,0,0,0-.224-.364l-4.713,2.892a.214.214,0,0,0,.154.392Z" fill="#0c0c0c"></path>
          <path d="M110.709,378.276a.222.222,0,0,0,.072-.029l3.686-2.3a.214.214,0,1,0-.227-.363l-3.687,2.3a.214.214,0,0,0,.156.392Z" fill="#0c0c0c"></path>
          <path d="M113.23,382.425a.212.212,0,0,0,.067-.026l1.767-1.046a.214.214,0,0,0-.218-.369l-1.767,1.047a.214.214,0,0,0-.075.293A.216.216,0,0,0,113.23,382.425Z" fill="#0c0c0c"></path>
        </g>
      </g>
      <path d="M70.051,456.747a16.3,16.3,0,0,0,14.141-8.227L113.3,394.271a.215.215,0,0,0-.073-.282L88.988,378.5a.209.209,0,0,0-.165-.028.213.213,0,0,0-.135.1l-18.34,31.055L56.611,386.134a.214.214,0,0,0-.369.217l13.92,23.8a.212.212,0,0,0,.184.106h0a.214.214,0,0,0,.184-.1l18.413-31.177,23.888,15.267-29.014,54.07a15.867,15.867,0,0,1-13.767,8.006h-.143a15.851,15.851,0,0,1-13.766-8.26l-28.33-48.3a.214.214,0,1,0-.369.216L55.769,448.27A16.275,16.275,0,0,0,69.9,456.747Z" fill="#0c0c0c"></path>
      <path d="M63.476,422.416a.214.214,0,0,0,.187-.108l6.87-12.158a.214.214,0,1,0-.373-.211L63.29,422.1a.215.215,0,0,0,.081.292A.219.219,0,0,0,63.476,422.416Z" fill="#0c0c0c"></path>
    </g>
  </g>
  <circle cx="91.841" cy="374.491" r="91.841" fill="none"></circle>
  <g>
    <circle cx="507.429" cy="236.957" r="19.708" fill="#367cff"></circle>
    <path d="M517.511,236.923a10.083,10.083,0,0,1-20.165,0Z" fill="#fff"></path>
    <g>
      <circle cx="500.312" cy="229.047" r="1.717" fill="#0c0c0c"></circle>
      <circle cx="514.545" cy="229.047" r="1.717" fill="#0c0c0c"></circle>
    </g>
  </g>
  <g>
    <rect x="233.066" y="66.746" width="190.47" height="388.443" rx="21.953" fill="#292a2e"></rect>
    <rect x="240.014" y="73.601" width="176.575" height="374.22" rx="15.075" fill="#fff"></rect>
    <path d="M292.138,70.767h72.327a0,0,0,0,1,0,0v7.484a8.093,8.093,0,0,1-8.093,8.093H300.231a8.093,8.093,0,0,1-8.093-8.093V70.767A0,0,0,0,1,292.138,70.767Z" fill="#292a2e"></path>
  </g>
  <g>
    <rect x="305.403" y="224.313" width="18.506" height="76.143" rx="5.37" transform="translate(-69.478 119.924) rotate(-19.476)" fill="#292a2e"></rect>
    <rect x="260.194" y="200.957" width="55.605" height="53.232" rx="26.616" transform="translate(-59.397 109.044) rotate(-19.476)" fill="#367cff"></rect>
    <path d="M373.131,214.681l-4.509,3.218-11.348-32.088,5.282-.73c1.248,4.632,2.751,9.47,4.5,14.415C368.958,204.873,371.007,209.975,373.131,214.681Z" fill="#367cff"></path>
    <path d="M384.415,193.36c2.228,6.3,2.718,11.871,1.1,12.444a1.3,1.3,0,0,1-1.125-.25h0c-1.7-1.091-4.056-5.073-5.84-10.117-1.656-4.683-2.353-8.964-1.933-11.087.143-.732.419-1.208.835-1.355C379.066,182.421,382.187,187.062,384.415,193.36Z" fill="#367cff"></path>
    <path d="M367.092,199.6c-.013-.035-.024-.07-.037-.1-7.235-20.457-8.38-43.8-6.549-53.072-10.781,15.551-27.484,32.4-44.425,41.007-6.836,3.472-15.32,7.029-28.349,11.619l17.99,50.871c13.019-4.621,21.852-7.189,29.352-8.786,18.583-3.958,42.167-1.355,60.327,3.96-7.255-6.061-21.037-24.932-28.272-45.389C367.117,199.671,367.1,199.637,367.092,199.6Z" fill="#367cff"></path>
    <rect x="284.464" y="193.276" width="32.5" height="59.371" rx="1.952" transform="translate(-57.132 113.02) rotate(-19.476)" fill="#292a2e"></rect>
    <rect x="284.464" y="193.276" width="32.5" height="59.371" rx="1.952" transform="translate(-57.132 113.02) rotate(-19.476)" fill="#fff" opacity="0.1"></rect>
    <path d="M392.7,190.428c9.732,27.516,11.873,51.848,4.8,54.35-1.41.5-3.076.1-4.912-1.093-.008,0-.011,0-.019,0-7.428-4.765-17.717-22.158-25.507-44.186-7.235-20.457-10.276-39.152-8.444-48.427.627-3.2,1.831-5.272,3.65-5.915C369.336,142.651,382.968,162.92,392.7,190.428Z" fill="#367cff"></path>
    <path d="M392.7,190.428c9.732,27.516,11.873,51.848,4.8,54.35-1.41.5-3.076.1-4.912-1.093-.008,0-.011,0-.019,0-7.428-4.765-17.717-22.158-25.507-44.186-7.235-20.457-10.276-39.152-8.444-48.427.627-3.2,1.831-5.272,3.65-5.915C369.336,142.651,382.968,162.92,392.7,190.428Z" fill="#0c0c0c" opacity="0.3"></path>
    <path d="M377.457,183.024l8.067,22.811-12.393,8.846c-2.124-4.706-4.173-9.808-6.075-15.185-1.749-4.945-3.252-9.783-4.5-14.415Z" fill="#fff" opacity="0.6"></path>
    <path d="M384.415,193.36c2.228,6.3,2.718,11.871,1.1,12.444a1.3,1.3,0,0,1-1.125-.25h0c-1.7-1.091-4.056-5.073-5.84-10.117-1.656-4.683-2.353-8.964-1.933-11.087.143-.732.419-1.208.835-1.355C379.066,182.421,382.187,187.062,384.415,193.36Z" fill="#fff"></path>
  </g>
  <g>
    <rect x="284.246" y="333.082" width="93.705" height="38.602" rx="8.239" fill="#367cff" opacity="0.8"></rect>
    <path d="M377.949,363.446v3.792a8.238,8.238,0,0,1-8.238,8.237H292.485a8.237,8.237,0,0,1-8.237-8.237v-3.792a8.237,8.237,0,0,0,8.237,8.238h77.226A8.238,8.238,0,0,0,377.949,363.446Z" fill="#367cff"></path>
    <path d="M325.95,363.787a1.346,1.346,0,0,1-.88-.326l-8.84-7.575a1.355,1.355,0,0,1,1.763-2.057l7.843,6.723,18.251-19.969a1.353,1.353,0,1,1,2,1.826L326.95,363.346A1.349,1.349,0,0,1,325.95,363.787Z" fill="#fff"></path>
  </g>
  <g>
    <g>
      <path d="M350.257,441.229a12.159,12.159,0,0,1,1.651-17.573c5.175-4.069,12.77-2.873,17.1,2.082l6.218,7.714-19.52-69.9a11.717,11.717,0,0,1,7.652-14.437,11.469,11.469,0,0,1,14.337,7.9l8.171,29.258a1.132,1.132,0,0,1,.231-.115,12.169,12.169,0,0,1,11.133-12.969,12.309,12.309,0,0,1,12.663,8.738l1.3,4.107a1.132,1.132,0,0,1,.4.128,12.147,12.147,0,0,1,9.221-12.737,12.44,12.44,0,0,1,14.6,8.559l3.146,9.968a1.122,1.122,0,0,1,.779-.727,1.106,1.106,0,0,1,.618.038,12.131,12.131,0,0,1,10.582-9.747c5.84-.682,11.254,3.261,13.023,8.868l16.721,52.655a61.229,61.229,0,0,1-19.409,65.645h0a40.271,40.271,0,0,1-56.038-4.643Z" fill="#E98862"></path>
      <g opacity="0.2">
        <path d="M395.243,415.834a1.142,1.142,0,0,0-.034-.4L387.6,386.921a1.143,1.143,0,1,0-2.208.59L393,416.024a1.142,1.142,0,0,0,2.241-.19Z" fill="#0c0c0c"></path>
        <path d="M418.348,409.639a1.148,1.148,0,0,0-.037-.409l-6.154-22.363a1.142,1.142,0,0,0-2.2.608l6.154,22.364a1.143,1.143,0,0,0,2.239-.2Z" fill="#0c0c0c"></path>
        <path d="M443.41,403.071a1.126,1.126,0,0,0-.03-.381l-2.658-10.629a1.141,1.141,0,0,0-2.215.553l2.658,10.629a1.142,1.142,0,0,0,2.245-.172Z" fill="#0c0c0c"></path>
      </g>
    </g>
    <path d="M379.93,490l114.8-36.249a10.085,10.085,0,0,1,12.637,6.527l8.22,25.54a10.085,10.085,0,0,1-6.687,12.745L394.945,532.95a10.086,10.086,0,0,1-12.333-6.05l-9.064-23.681A10.086,10.086,0,0,1,379.93,490Z" fill="#367cff"></path>
    <path d="M379.93,490l114.8-36.249a10.085,10.085,0,0,1,12.637,6.527l8.22,25.54a10.085,10.085,0,0,1-6.687,12.745L394.945,532.95a10.086,10.086,0,0,1-12.333-6.05l-9.064-23.681A10.086,10.086,0,0,1,379.93,490Z" fill="#fff" opacity="0.18"></path>
  </g>
  <g>
    <path d="M672.3,359.438a82.03,82.03,0,0,1-9.491,38.43v.01a82.47,82.47,0,1,1,9.491-38.44Z" fill="#fff"></path>
    <path d="M672.3,359.438a82.03,82.03,0,0,1-9.491,38.43v.01a82.47,82.47,0,1,1,9.491-38.44Z" fill="#367cff" opacity="0.2"></path>
    <g>
      <g>
        <path d="M629.507,306.45s2.2,11.789,5.377,15.785c9.162,11.5,13.041,25.2,6.195,33.4s-55.992,14.112-61.7-2.226c-4.8-13.755,1.745-16.068,2.006-27.914.118-5.36.85-16.656.85-16.656" fill="#0a0a0a"></path>
        <path id="sk-3" data-name="sk" d="M589.821,347.234c.085-.011,1.033,15.722,19.311,14.35,12.653-.948,17.165-14.372,17.454-14.372a30.06,30.06,0,0,1-4.267-1.035c-1.992-1.071-4.458-2.185-5.1-6.054-.37-2.23.258-13.639.065-15.9l-19.423,4.336c.271,4.765,2.171,15.812-4.487,17.768C592.267,346.654,591.073,346.951,589.821,347.234Z" fill="#E98862"></path>
        <path id="sh-3" data-name="sh" d="M597.589,341.816a14.1,14.1,0,0,0,.584-3.015,32.117,32.117,0,0,0-.127-7.011,21.3,21.3,0,0,0,10.735-4.7c.36,1.332,2.344,7.152,1.8,8.418C609.537,337.9,604.659,341.816,597.589,341.816Z" fill="#0c0c0c" opacity="0.5"></path>
        <path d="M600.814,338c7.691-.162,17.172-4.366,18.014-14.734l.76-9.355c.842-10.368-3.92-19.216-13.682-20.009h0c-9.761-.793-17.741,7.019-18.583,17.387l-.337,4.142C586.662,319.406,587.09,338.286,600.814,338Z" fill="#E98862"></path>
        <circle cx="589.868" cy="314.184" r="1.206" fill="#0c0c0c"></circle>
        <circle cx="602.223" cy="314.907" r="1.206" fill="#0c0c0c"></circle>
        <path d="M596.288,324.227h-.019a10.712,10.712,0,0,1-1.179-.17c-.582-.121-1.351-.342-1.309-.861.048-.59,2.184-6.833,2.427-7.543a.247.247,0,1,1,.468.16c-.912,2.659-2.37,7.026-2.4,7.423a4.416,4.416,0,0,0,2.035.5.247.247,0,0,1-.021.494Z" fill="#0c0c0c" opacity="0.5"></path>
        <path d="M598.171,328.464a10.1,10.1,0,0,1-4.53-1.191.247.247,0,1,1,.225-.44c3.012,1.536,5.843,1.535,8.186,0a1.6,1.6,0,0,1,.147-.089.247.247,0,0,1,.216.444c-.019.01-.05.031-.092.059A7.407,7.407,0,0,1,598.171,328.464Z" fill="#0c0c0c" opacity="0.5"></path>
        <path d="M627.583,316.289l-8.745-.66c-6.777-1.938-9.938-12.975-9.938-12.975s-7.073,8.53-26.662,6.19c0,0,1-27.077,30.075-22.328,9.376,1.532,16.89,10.016,17.381,22.372C630.038,317.547,627.583,316.289,627.583,316.289Z" fill="#0a0a0a"></path>
        <path d="M617.965,326.372c2.967.241,5.629-2.737,5.87-5.7s-2.031-4.8-5-5.039l-1.69,1.864-1.734,8.672Z" fill="#E98862"></path>
        <path d="M593.194,310.031a5.559,5.559,0,0,0-2.876-.6,4.93,4.93,0,0,0-1.437.3,5.832,5.832,0,0,0-1.3.67.19.19,0,0,0,.2.322l.013-.008a5.381,5.381,0,0,1,1.221-.581,4.446,4.446,0,0,1,1.321-.231,5.058,5.058,0,0,1,2.564.613l.02.011a.284.284,0,0,0,.278-.495Z" fill="#0c0c0c"></path>
        <path d="M601.743,310.943a5.057,5.057,0,0,1,2.628-.2,4.489,4.489,0,0,1,1.269.435,5.442,5.442,0,0,1,1.115.766l.011.009a.189.189,0,0,0,.248-.285,5.855,5.855,0,0,0-1.175-.866,4.925,4.925,0,0,0-1.372-.522,5.58,5.58,0,0,0-2.934.138.284.284,0,0,0,.18.539l.008,0Z" fill="#0c0c0c"></path>
        <path d="M598.085,330.807a5.04,5.04,0,0,1-.853-.079.247.247,0,0,1,.085-.487,3.2,3.2,0,0,0,2.6-.459.247.247,0,0,1,.325.372A3.342,3.342,0,0,1,598.085,330.807Z" fill="#0c0c0c" opacity="1"></path>
        <path d="M618.816,315.49l.043-.181c-5.912-1.439-8.253-5.121-9.176-7.957a14.324,14.324,0,0,1-.593-5.885l-.184-.028a14.52,14.52,0,0,0,.6,5.963C610.441,310.286,612.817,314.03,618.816,315.49Z" fill="#0c0c0c"></path>
        <ellipse cx="604.082" cy="322.469" rx="1.686" ry="2.298" transform="translate(280.883 926.161) rotate(-89.931)" fill="#0c0c0c" opacity="0.1"></ellipse>
        <path d="M590.423,322.047c0,.93-1.033,1.682-2.3,1.682a3.125,3.125,0,0,1-.652-.069c-.187-1.086-.315-2.137-.4-3.114a2.9,2.9,0,0,1,1.056-.188C589.4,320.358,590.423,321.114,590.423,322.047Z" fill="#0c0c0c" opacity="0.1"></path>
      </g>
      <path d="M587.844,374.378l-22.521,25.09-23.929,26.65A82.664,82.664,0,0,1,519.253,402l13.221-32.73,17.3,6.99,11.489-11.88,7.511-7.77Z" fill="#0cbc8b"></path>
      <path d="M545.941,408.675a.2.2,0,0,1-.063-.011.193.193,0,0,1-.119-.244l13.082-37.771a.192.192,0,1,1,.363.126l-13.082,37.77A.192.192,0,0,1,545.941,408.675Z" fill="#0c0c0c"></path>
      <path d="M653.984,387.178c-.721,6.47-1.24,16.22-1.63,26.02a82.533,82.533,0,0,1-83.25,26.04c-.9-10.07-2.57-27.21-3.781-39.77-.669-6.96-1.2-12.51-1.389-14.67-.69-8.1-2.621-14.81-2.671-20.42-.07-5.02,1.37-9.17,6.531-12.67,4.87-3.31,17.529-4.91,24.23-4.91.09,0-1.141,13,17.289,12.13,13.541-.64,14.111-12.13,14.111-12.13s6.709.43,11.17,1.03c7.3.99,14.289,3.21,18.21,10.45a11.5,11.5,0,0,1,.769,1.8,20.267,20.267,0,0,1,.831,3.39v.01C655.284,368.728,655.164,376.578,653.984,387.178Z" fill="#0cbc8b"></path>
      <path d="M564.883,400.215a.193.193,0,0,1-.191-.178l-.759-10.359a.193.193,0,0,1,.178-.206.2.2,0,0,1,.206.178l.759,10.359a.192.192,0,0,1-.178.2Z" fill="#0c0c0c"></path>
      <g>
        <path d="M551.682,376.238h16.124a2.814,2.814,0,0,0,2.76-3.364l-6.379-32.057a2.815,2.815,0,0,0-2.784-2.266l-15.713.133a2.814,2.814,0,0,0-2.743,3.332l5.969,31.924A2.814,2.814,0,0,0,551.682,376.238Z" fill="#262626"></path>
        <path d="M564.1,358.385a2.077,2.077,0,0,0-2.326-.838.19.19,0,0,0-.041-.1.184.184,0,0,0-.18-.041l1.252-1.249a2.161,2.161,0,0,0,.164-2.946,2.081,2.081,0,0,0-2.649-.377c0-.021-.016-.038-.022-.058l.515-.514a2.132,2.132,0,0,0,.321-2.68,2.084,2.084,0,0,0-3.208-.323l-1.189,1.186c-.005-.008,0-.018-.009-.024s-.022-.007-.031-.014a2.08,2.08,0,0,0-.283-2.581c-.8-.919-2.237-.47-3.006.3l-7.254,7.106.221-.332,1.027-2.618a2.163,2.163,0,0,0-1.032-2.765,2.084,2.084,0,0,0-2.8,1.135l-6,14.852s12.618,9.13,15.643,6.113l10.574-10.545A2.133,2.133,0,0,0,564.1,358.385Z" fill="#E98862"></path>
        <g opacity="0.2">
          <path d="M549.775,357.138a.193.193,0,0,0,.269,0l6.68-6.45a.193.193,0,0,0,0-.272.191.191,0,0,0-.272,0l-6.68,6.451a.192.192,0,0,0,0,.272Z" fill="#0c0c0c"></path>
          <path d="M552.539,360.163a.191.191,0,0,0,.268,0l7.456-7.2a.193.193,0,0,0,0-.272.2.2,0,0,0-.271,0l-7.456,7.2a.191.191,0,0,0,0,.271Z" fill="#0c0c0c"></path>
          <path d="M555.513,363.456a.193.193,0,0,0,.269,0l5.947-5.742a.192.192,0,0,0-.267-.277l-5.947,5.743a.193.193,0,0,0,0,.272Z" fill="#0c0c0c"></path>
        </g>
      </g>
      <path d="M558.623,370.568l-17.589,50.77-7.85-2.05A82.289,82.289,0,0,1,519.253,402c-.05-.09-.109-.18-.159-.27l16.409-40.19Z" fill="#0cbc8b"></path>
      <path d="M662.813,397.868v.01a83.071,83.071,0,0,1-24.319,28.13l-10.88-43.02,25.959-22.91.831,3.39v.01Z" fill="#0cbc8b"></path>
      <path d="M638.674,425.878c-.06.04-.12.09-.18.13s-.121.09-.181.13l-10.9-43.1a.206.206,0,1,1,.4-.1Z" fill="#0c0c0c"></path>
    </g>
  </g>
  <circle cx="589.868" cy="359.439" r="82.439" fill="none"></circle>
  <g>
    <circle cx="145.287" cy="223.243" r="26.569" fill="#6b6c70"></circle>
    <circle cx="145.287" cy="213.333" r="11.112" fill="#fff"></circle>
    <path d="M124.2,239.418a26.576,26.576,0,0,0,42.161,0,27.92,27.92,0,0,0-42.161,0Z" fill="#fff"></path>
    <path d="M118.344,223.243a26.944,26.944,0,1,1,26.943,26.943A26.974,26.974,0,0,1,118.344,223.243Zm.748,0a26.2,26.2,0,1,0,26.2-26.195A26.225,26.225,0,0,0,119.092,223.243Z" fill="#292a2e"></path>
  </g>
  <g>
    <circle cx="156.4" cy="511.506" r="21.514" fill="#292a2e"></circle>
    <circle cx="156.4" cy="503.482" r="8.998" fill="#fff"></circle>
    <path d="M139.328,524.6a21.519,21.519,0,0,0,34.138,0,22.607,22.607,0,0,0-34.138,0Z" fill="#fff"></path>
    <path d="M134.583,511.506A21.817,21.817,0,1,1,156.4,533.322,21.841,21.841,0,0,1,134.583,511.506Zm.606,0A21.211,21.211,0,1,0,156.4,490.3,21.234,21.234,0,0,0,135.189,511.506Z" fill="#292a2e"></path>
  </g>
</svg>