<svg id="Layer_1" data-name="Layer 1" xmlns="http://www.w3.org/2000/svg" viewBox="0 0 1060.26 736.069">
  <path d="M987.114,735.664c41.669,0,74.914-32.936,73.073-72.385-2.406-51.58-30.238-124.411-139.942-197.2C786.466,377.325,846.8,121.773,562.559,139.406S305.416,345.9,131.124,432.457C20.179,487.557.007,595.367,0,666.456c0,38.241,32.789,69.208,73.142,69.208Z" fill="#f3f5fd"></path>
  <g>
    <g>
      <path d="M125.805,679.851c-8.126-2.333-14.244-9.6-16.674-17.7s-1.574-16.884.8-25c1.937-6.622,4.873-13.023,5.6-19.885,2.409-22.848-19.752-46.191-9.323-66.663,3.372-6.619,9.9-11.793,11.062-19.13.964-6.069-2.026-11.966-3.512-17.927-2.045-8.2-1.009-17.515,4.314-24.085s15.382-9.44,22.717-5.233c9.593,5.5,10.425,19.089,7.959,29.87s-7.035,21.872-4.022,32.514c2.871,10.142,12.215,17.78,13.89,28.187,1.393,8.652-2.83,17.087-4.686,25.651-2.916,13.461.052,27.414.18,41.186S150.347,670.852,125.805,679.851Z" fill="#8ddbe0"></path>
      <path d="M113.264,681.159a28.592,28.592,0,0,1-19.335-21.444c-1.59-8.2.362-17.4-4.123-24.44-6.077-9.541-12.31-10.619-19.876-19.027-11.634-12.93-12.043-18.656-11.276-42.6.325-10.127-13.658-21.555-8.734-31.285,4.339-8.572,17.527-8.616,25.006-2.584s10.764,15.7,14.023,24.74,7.367,18.6,15.628,23.507c4.954,2.943,11.44,4.3,14.177,9.373,2.2,4.075,1.091,9.048.207,13.592-2.222,11.424-1.665,25.36,7.922,31.958,4.326,2.976,9.99,4,13.546,7.865,3.516,3.82,4.082,9.479,3.844,14.666a65.285,65.285,0,0,1-8.03,28.444" fill="#dee8f5"></path>
      <path d="M124.826,689.115c-8.632-9.862-9.852-25.486-2.857-36.569,5.869-9.3,16.807-15.7,19.1-26.457,2.045-9.578-3.628-19.476-1.929-29.122,1.846-10.489,11.536-17.371,19.233-24.732a26.807,26.807,0,0,0,5.111-6.172c3.386-6.093,2.441-13.567,3.591-20.442,2.2-13.165,13.048-24.843,26.218-27.019,11.55-1.909,19.824,4.726,19.824,16.946,0,14.476-10.844,20.68-16.377,27.233a50.915,50.915,0,0,0-11.863,33.92c.39,13.82,6.275,28.533-.012,40.847-4.613,9.036-14.468,13.854-22.211,20.411A56.458,56.458,0,0,0,143,698.214" fill="#fff"></path>
    </g>
    <rect x="92.426" y="666.417" width="69.652" height="69.652" fill="#dee8f5"></rect>
    <g opacity="0.42">
      <rect x="92.426" y="679.998" width="69.652" height="13.595" fill="#fff"></rect>
    </g>
  </g>
  <g>
    <polygon points="673.499 695.959 662.953 735.664 677.842 735.664 694.593 695.959 673.499 695.959" fill="#dee8f5"></polygon>
    <polygon points="865.827 695.959 876.374 735.664 861.484 735.664 844.733 695.959 865.827 695.959" fill="#dee8f5"></polygon>
    <g>
      <polygon points="741.335 695.959 730.788 735.664 745.678 735.664 762.428 695.959 741.335 695.959" fill="#c1d8ed"></polygon>
      <polygon points="933.662 695.959 944.209 735.664 929.319 735.664 912.569 695.959 933.662 695.959" fill="#c1d8ed"></polygon>
    </g>
    <path d="M949.454,638.761H757.587L770.6,497.214a13.639,13.639,0,0,1,13.581-12.39H948.656a13.637,13.637,0,0,1,13.58,14.887Z" fill="#c1d8ed"></path>
    <rect x="648.65" y="572.593" width="130.441" height="130.441" fill="#c1d8ed"></rect>
    <path d="M912.269,638.761H727.478L740.49,497.214a13.638,13.638,0,0,1,13.58-12.39h157.4a13.638,13.638,0,0,1,13.581,14.887Z" fill="#dee8f5"></path>
    <g opacity="0.48">
      <path d="M912.269,638.761H727.478L740.49,497.214a13.638,13.638,0,0,1,13.58-12.39h157.4a13.638,13.638,0,0,1,13.581,14.887Z" fill="#c1d8ed"></path>
    </g>
    <path d="M847.048,572.593H958.142a19.347,19.347,0,0,1,19.347,19.347v97.584a19.347,19.347,0,0,1-19.347,19.347H847.048a0,0,0,0,1,0,0V572.593A0,0,0,0,1,847.048,572.593Z" fill="#c1d8ed"></path>
    <path d="M847.048,708.872H648.65a21.226,21.226,0,0,1-21.226-21.226V593.819a21.226,21.226,0,1,1,42.452,0v72.6H825.822v-72.6a21.227,21.227,0,0,1,42.453,0v93.827A21.227,21.227,0,0,1,847.048,708.872Z" fill="#dee8f5"></path>
    <path d="M658.762,624.52H826.111a0,0,0,0,1,0,0v45.406a0,0,0,0,1,0,0H658.762A13.566,13.566,0,0,1,645.2,656.36V638.087A13.566,13.566,0,0,1,658.762,624.52Z" fill="#f3f5fd"></path>
    <g opacity="0.15">
      <path d="M658.762,624.52H826.111a0,0,0,0,1,0,0v45.406a0,0,0,0,1,0,0H658.762A13.566,13.566,0,0,1,645.2,656.36V638.087A13.566,13.566,0,0,1,658.762,624.52Z" fill="#c1d8ed"></path>
    </g>
  </g>
  <g>
    <path d="M684.378,154.248A154.248,154.248,0,0,0,530.131,0c-85.2,0-155.1,70.635-154.241,155.833a153.6,153.6,0,0,0,37.347,99.049c33.843,39.267,51.854,89.736,51.854,141.574l130.078,0a220.112,220.112,0,0,1,52.59-142.433A153.6,153.6,0,0,0,684.378,154.248Z" fill="#0cbc8b"></path>
    <path d="M510.059,419.809a2.055,2.055,0,0,1-2.034-1.788c-1.317-10.108-32.27-247.633-32.27-254.165,0-8.34,5.662-14.365,14.426-15.348a25.941,25.941,0,0,1,12.712,1.944c4.291-7.906,12.673-12.478,23.8-12.926,6.714-.271,12.979,3.17,17.929,9.754a23.878,23.878,0,0,1,9.467-6.037c4.759-1.51,12.056-1.68,19.795,6.058,4.348,4.348,2.6,27.928-2.426,80.7-1.1,11.559-2.239,23.511-3.2,34.879-6.459,76.289-13.22,154.277-13.288,155.056a2.053,2.053,0,1,1-4.09-.355c.067-.779,6.828-78.762,13.286-155.048.964-11.389,2.1-23.352,3.206-34.922,1.857-19.5,3.611-37.924,4.422-52.232,1.2-21.167-.323-24.622-.818-25.177-5.037-5.037-10.3-6.733-15.645-5.043a20.33,20.33,0,0,0-8.385,5.613c5.821,9.861,7.736,22.726,4.245,28.963a7.421,7.421,0,0,1-6.662,4.034c-2.087,0-4.15-1.141-5.966-3.3a18.6,18.6,0,0,1-3.936-14.319,36.915,36.915,0,0,1,7.21-15.714c-2.894-4.051-7.929-9.077-14.978-8.806-9.532.383-16.668,4.148-20.282,10.648,7.482,4.358,14,12.36,16.648,24.01,1.607,7.071-1.085,9.54-2.833,10.383-3.871,1.871-9.943-.852-14.438-6.465a28.022,28.022,0,0,1-4.7-26.006,21.832,21.832,0,0,0-10.618-1.611c-6.749.757-10.778,4.97-10.778,11.268.011,5.105,21.091,168.14,32.236,253.633a2.053,2.053,0,0,1-1.771,2.3A2.019,2.019,0,0,1,510.059,419.809Zm-5.09-263.731a24.243,24.243,0,0,0,4.189,21.561c3.68,4.594,7.924,6.068,9.45,5.333,1.07-.517,1.305-2.729.613-5.774C516.906,167.013,511.347,159.972,504.969,156.078Zm39.191-1.891a32.585,32.585,0,0,0-5.487,12.665,14.671,14.671,0,0,0,3.032,10.972,4.38,4.38,0,0,0,2.824,1.836,3.31,3.31,0,0,0,3.079-1.933C549.944,173.554,549.011,163.2,544.16,154.187Z" fill="#fff"></path>
    <path d="M594.554,396.456a64.424,64.424,0,0,1-128.848,0" fill="#dee8f5"></path>
  </g>
  <g>
    <g>
      <path d="M290.619,281.66c.3,3.67-3.525,7.085-4.155,10.543-.652,3.578,1.686,8.122.161,11.332-1.548,3.256-6.563,4.313-8.883,7.041s-2.554,7.849-5.518,9.9c-2.922,2.022-7.783.447-11.209,1.667-3.311,1.179-6.066,5.5-9.735,5.8s-7.086-3.525-10.543-4.155c-3.578-.652-8.123,1.686-11.332.161-3.256-1.548-4.313-6.563-7.042-8.883s-7.849-2.554-9.9-5.518c-2.022-2.922-.447-7.783-1.667-11.209-1.179-3.311-5.5-6.066-5.8-9.736s3.525-7.085,4.155-10.543c.652-3.577-1.686-8.122-.161-11.332,1.547-3.255,6.563-4.312,8.882-7.041s2.554-7.849,5.518-9.9c2.922-2.022,7.784-.447,11.21-1.667,3.311-1.179,6.066-5.5,9.735-5.8s7.085,3.524,10.543,4.155c3.578.652,8.122-1.686,11.332-.161,3.256,1.547,4.313,6.563,7.041,8.882s7.849,2.554,9.9,5.518c2.022,2.922.447,7.784,1.667,11.209C286,275.235,290.321,277.991,290.619,281.66Z" fill="#0f1011"></path>
      <path d="M231.608,324.8s7.736-4.093,6.028-25.151l15.979-2.948s-1.812,18.877,6.265,24.878Z" fill="#E98862"></path>
      <g opacity="0.15">
        <path d="M256.61,317.632l-13.263-10.165,10.425-.1A28.72,28.72,0,0,0,256.61,317.632Z"></path>
      </g>
      <path d="M228.579,291.479c1.1,6.39,4.581,12.442,10.214,14.511a40.5,40.5,0,0,0,19.355,2.633c17.491-1.419,14.067-41.19,5.771-48.922s-32.671-2.861-35.647,10.056C226.733,276.438,227.531,285.4,228.579,291.479Z" fill="#E98862"></path>
      <g>
        <circle cx="253.603" cy="285.132" r="1.449" fill="#0f1011"></circle>
        <circle cx="265.035" cy="284.205" r="1.449" fill="#0f1011"></circle>
        <path d="M267.549,281.118h-.008l-3.839-.05a.681.681,0,0,1-.672-.69.672.672,0,0,1,.69-.672l3.838.051a.681.681,0,0,1-.009,1.361Z" fill="#0f1011"></path>
        <path d="M250.479,282.5a.681.681,0,0,1-.159-1.343l3.786-.907a.681.681,0,0,1,.317,1.324l-3.785.908A.725.725,0,0,1,250.479,282.5Z" fill="#0f1011"></path>
        <path d="M254.263,296.544s5.348.569,9.1-.738c0,0-.032,3.523-4.265,3.866S254.263,296.544,254.263,296.544Z" fill="#fff"></path>
      </g>
      <path d="M240.362,274.938a125.379,125.379,0,0,1-4.867,44.407S223.3,298.32,221.417,280.814c-1.768-16.41,10.332-26.087,18.5-27.907,31.052-6.914,33.286,15.768,33.286,15.768C267.549,280.438,237,280.387,237,280.387" fill="#0f1011"></path>
      <path d="M246.281,291.37a6.143,6.143,0,0,1-12.245.993,6.041,6.041,0,0,1,5.626-6.619C244.04,285.605,246.007,287.989,246.281,291.37Z" fill="#E98862"></path>
      <g opacity="0.15">
        <path d="M260.028,293.174a.5.5,0,0,1-.146-.978l2.948-.9-2.058-4.593a.5.5,0,0,1,.913-.408l2.289,5.11a.5.5,0,0,1-.31.682l-3.489,1.068A.533.533,0,0,1,260.028,293.174Z"></path>
      </g>
    </g>
    <path d="M286.621,459.892c19.951,87.889,38.015,176.367,52.272,265.368l-20.04,4.122c-22.031-87.4-40.359-175.827-56.719-264.452Z" fill="#E98862"></path>
    <path d="M245.383,465.337c1.833,87.312,1.7,174.821-2.27,262.074h-20.46c-3.968-87.252-4.1-174.763-2.27-262.074Z" fill="#E98862"></path>
    <path d="M269.582,735.477a4.107,4.107,0,0,0,4.076-4.427h0A4.108,4.108,0,0,0,271,727.521l-24.443-8.187a3.461,3.461,0,0,0-2.872.32,19.112,19.112,0,0,1-11.468,3.4,17.031,17.031,0,0,1-8.82-3.222,1.547,1.547,0,0,0-2.528,1.2v11.952a2.678,2.678,0,0,0,2.689,2.678Z" fill="#c1d8ed"></path>
    <path d="M363.316,735.477a4.107,4.107,0,0,0,4.076-4.427h0a4.107,4.107,0,0,0-2.659-3.529l-24.442-8.187a3.46,3.46,0,0,0-2.872.32,19.114,19.114,0,0,1-11.468,3.4,17.035,17.035,0,0,1-8.821-3.222,1.546,1.546,0,0,0-2.527,1.2v11.952a2.678,2.678,0,0,0,2.689,2.678Z" fill="#c1d8ed"></path>
    <path d="M207.71,427.641s-11.36,50.871-11.36,93.654-13.043,109.043-13.043,109.043,36.966-5.979,62.044,0c43.209,10.3,81.952-12.132,81.952-12.132L283.787,432.337Z" fill="#262626"></path>
    <g>
      <path d="M338.469,324.272s.15-12.01,8.735-11.386c5.416.394,31.151-.8,31.534,1.544.948,5.8-22.592,7.218-24.728,12.623Z" fill="#E98862"></path>
      <path d="M344.164,313.271s11.949-3.894,14.886-3.2c2.6.618-2.82,4.85-2.82,4.85Z" fill="#E98862"></path>
    </g>
    <path d="M337.459,317.256l-21.546,40.233-32.239-30.158a16.481,16.481,0,0,0-5.919-5.537l-.154-.144-.037.039a26.764,26.764,0,0,0-11.729-2.845c-.629-.03-1.639-.05-2.939-.07-.26,5.5-34.32,5.48-35.04-.13-9.62.01-17.51,2.96-22.08,7.53-15.75,15.75,3.58,42.59,3.58,63.59s-9.5,30.42-8.8,41.2c1.1,16.939,83.43,12.939,87.619,3.309,2.453-5.631.687-10.043-1.227-18.739l19.536-.6-.664-21.8-21.6.659c-.094-2.486-.134-5.149-.1-8.029.1-8.478,1.527-17.891,2.518-26.918l24.911,23.3a10.5,10.5,0,0,0,16.429-2.711l28-52.279Z" fill="#367CFF"></path>
    <path d="M262.9,318.774c-.26,5.5-3.25,13.59-12.48,14.2-12.3.81-21.84-8.72-22.56-14.33h.03C240,318.644,255.836,318.664,262.9,318.774Z" fill="#E98862"></path>
    <g>
      <g>
        <path d="M301.337,341.16,289.2,392.131a5.4,5.4,0,0,0,5.251,6.65H366.03a5.4,5.4,0,0,0,5.206-3.97l13.992-50.971a5.4,5.4,0,0,0-5.206-6.828H306.589A5.4,5.4,0,0,0,301.337,341.16Z" fill="#9ebcea"></path>
        <rect x="260.539" y="392.436" width="92.863" height="6.344" rx="3.172" fill="#9ebcea"></rect>
      </g>
      <circle cx="340.142" cy="367.393" r="8.466" fill="#fff"></circle>
    </g>
    <path d="M323.838,405.471c-4.49,2.77-11.44,4.08-17.5,4.56l-.34-11.04c2.85-.08,7.23-.38,11.52-.21,1.938-1.581,3.054-2.051,5.044-4.04,2.118-2.118,7.676-3.39,8.726,0S327.778,403.031,323.838,405.471Z" fill="#E98862"></path>
  </g>
</svg>